<svg width="180" height="165" viewBox="0 0 180 165" fill="none" xmlns="http://www.w3.org/2000/svg">
<path d="M95.4112 0.349289C92.0214 0.843399 79.4328 2.07159 73.7503 2.45277C70.5012 2.67865 62.948 2.72099 60.8522 2.53748C59.7832 2.43864 59.5441 2.36806 58.883 1.93042C57.8703 1.23868 57.2374 1.06927 56.0418 1.13986C54.6493 1.23868 53.6085 1.76102 52.441 2.93275C51.3017 4.09038 50.8798 4.93741 50.7813 6.20798C50.711 7.29501 50.922 9.94907 51.3158 12.5466C51.7378 15.356 51.9065 17.5724 51.8081 18.73C51.7378 19.4218 51.4564 20.6076 51.0345 21.9347C50.6547 23.0923 50.0218 25.1252 49.6279 26.4522C48.348 30.6874 47.2649 33.0591 45.7177 34.9932C44.3674 36.7014 42.1873 38.2402 40.2744 38.8472C38.8959 39.2848 37.827 39.3837 33.4526 39.5107C30.5129 39.5813 28.614 39.7084 27.7982 39.8495C25.9275 40.1884 23.227 41.1342 21.1031 42.193C16.8271 44.3247 14.0984 46.5694 10.9759 50.5646C10.3007 51.4257 8.86607 53.2327 7.78302 54.588C4.46356 58.7385 3.92907 59.4444 3.43678 60.4749C2.56472 62.2396 2.48032 62.7478 2.43813 66.8277C2.41 70.71 2.29747 71.7406 1.43948 75.7922C0.398627 80.6627 0.131382 82.3568 0.0329239 84.8273C-0.0374037 86.4649 -0.00927267 86.9308 0.257972 88.1449C0.412693 88.9213 0.60961 89.8531 0.665872 90.2201C0.750265 90.7566 0.933117 91.053 1.56606 91.7448C2.78976 93.0577 4.70267 96.587 5.11057 98.267C5.16684 98.4788 5.46221 98.9446 5.75759 99.2834C6.54526 100.173 6.8125 101.373 7.07975 105.057C7.29073 108.064 7.48765 109.25 7.99401 110.634C8.92233 113.133 11.0181 116.027 13.0857 117.65C14.1125 118.455 15.8566 119.415 16.3067 119.415C16.4614 119.415 16.6162 119.612 16.7287 119.937C16.9537 120.629 17.3194 121.222 18.6697 123.001C20.3154 125.175 20.5545 125.965 20.7936 130.214C20.878 131.683 20.9765 133.024 21.0327 133.165C21.2015 133.744 25.0977 138.473 27.6435 141.198C29.1767 142.835 29.4298 142.977 31.2302 143.089C32.4539 143.174 32.468 143.174 33.2697 143.866C33.7198 144.247 34.7466 144.981 35.5343 145.504C41.2308 149.202 42.3139 150.049 42.3139 150.798C42.3139 151.362 42.6092 151.997 43.2562 152.816C44.0017 153.748 44.2971 154.327 44.4096 155.089L44.494 155.724L45.4786 156.035C46.4913 156.374 47.6025 156.854 51.5268 158.703C54.9025 160.284 56.6185 160.778 58.7705 160.778C60.2474 160.778 60.7537 160.637 61.8227 159.946C62.962 159.211 63.2011 159.155 63.8482 159.451L64.3967 159.691L64.7906 159.324C65.1422 158.986 65.2969 158.943 66.0986 158.943C68.0116 158.943 69.2071 159.578 70.7403 161.428C72.6954 163.785 73.2299 164.138 75.4381 164.618C77.0557 164.957 80.6283 165.084 84.7214 164.943L87.8158 164.844L89.2224 163.461C90.9383 161.781 91.5713 161.498 93.7374 161.386C96.1004 161.258 98.801 161.809 100.967 162.868C101.544 163.15 102.078 163.362 102.149 163.334C102.233 163.32 104.132 163.249 106.368 163.178C110.743 163.037 111.615 162.938 113.331 162.402C114.737 161.95 115.764 161.258 117.424 159.649C118.985 158.124 119.801 157.56 121.151 157.08C122.994 156.402 124.245 156.19 126.285 156.204C127.987 156.204 128.296 156.247 129.281 156.586L130.392 156.967L131.953 156.063C134.119 154.807 136.426 153.72 138.592 152.929C140.885 152.11 141.616 151.729 142.418 150.995C143.248 150.233 143.417 149.866 143.642 148.327C143.754 147.607 143.895 146.887 143.951 146.732C144.204 146.012 145.147 145.009 146.652 143.809C147.552 143.089 149.015 141.819 149.887 140.972C151.758 139.165 152.63 138.671 153.685 138.812C155.766 139.108 155.372 139.25 157.651 137.414C162.518 133.476 164.107 131.542 164.965 128.45C165.275 127.335 165.359 125.259 165.176 123.735C165.092 123.071 165.12 122.916 165.443 122.436C165.64 122.125 166.259 120.897 166.808 119.697C167.849 117.424 168.721 115.956 169.438 115.278C169.663 115.067 170.507 114.558 171.309 114.149C172.926 113.344 172.842 113.429 174.347 110.803C176.682 106.709 177.765 103.335 177.765 100.13C177.765 98.4223 177.568 97.6317 176.668 95.8529L175.866 94.2436V92.8177C175.88 90.9825 176.105 90.2625 177.905 86.5214C179.439 83.3309 179.846 82.1168 179.973 80.2956C180.086 78.5592 179.846 77.3169 179.242 76.5687C178.426 75.5805 177.948 74.324 177.357 71.6982C176.752 68.9171 176.611 68.5218 175.838 67.3642C175.528 66.9124 174.361 64.6678 173.236 62.3808C170.479 56.8044 167.891 52.5128 164.571 48.0235C163.727 46.88 163.418 46.5553 163.08 46.4847C162.447 46.3576 161.308 45.6941 159.93 44.6353C158.382 43.4495 157.637 43.1106 155.963 42.8283C154.107 42.5177 153.516 42.2636 152.545 41.3742C152.025 40.8942 151.279 40.4001 150.562 40.0613C149.479 39.5531 148.762 39.3272 144.655 38.1696L142.854 37.6614L141.982 36.7861C140.716 35.5014 139.703 34.9932 135.653 33.5673C132.811 32.5791 131.967 32.198 130.842 31.4356L129.97 30.8568L129.886 29.9674C129.759 28.7251 129.225 26.9604 128.296 24.7017C126.215 19.6335 125.807 18.3912 125.582 16.3866C125.427 15.0737 125.624 13.436 126.018 12.589C126.299 12.0102 126.426 11.8972 128.128 10.8526C128.662 10.5279 128.887 10.2596 129.253 9.49731C129.675 8.63615 129.731 8.38203 129.773 7.11148L129.829 5.67151L128.479 5.29034C127.748 5.07858 125.722 4.42918 124.006 3.85039C118.014 1.81749 116.003 1.25279 113.063 0.744568C111.39 0.448105 107.929 0.391632 104.343 0.603394C102.191 0.730453 102.149 0.716339 101.08 0.349289C99.7152 -0.116592 98.5197 -0.116592 95.4112 0.349289ZM113.19 2.52335C115.272 2.94687 116.847 3.48334 121.151 5.20564C123.247 6.03856 125.469 6.89972 126.116 7.11148L127.284 7.49265L126.608 8.21263C124.4 10.5843 123.247 13.4219 123.359 16.1748C123.402 17.3607 123.444 17.5159 124.358 19.5065C125.427 21.85 125.483 22.0476 126.369 26.0993C127.256 30.2074 127.776 31.7038 128.789 33.1015C129.14 33.5815 129.351 33.7085 130.097 33.9203C131.475 34.3156 134.373 35.2332 135.709 35.7273C137.087 36.2214 139.507 37.252 139.507 37.3508C139.507 37.379 139.408 37.6049 139.282 37.8308C139.169 38.0708 139.085 38.2825 139.113 38.3108C139.141 38.339 139.76 38.5084 140.519 38.706C141.265 38.9178 142.756 39.3978 143.825 39.8072C147.088 41.0213 149.648 41.8824 150.576 42.066C151.322 42.2212 151.462 42.2918 151.462 42.5318C151.462 42.7012 151.659 43.0259 151.884 43.28C152.194 43.633 152.475 43.76 153.136 43.8871C155.133 44.2541 156.821 45.0871 160.014 47.3176C161.196 48.1364 162.293 48.8564 162.433 48.8987C162.588 48.9411 163.024 49.5622 163.432 50.2822C163.84 51.0022 165.697 53.868 167.567 56.6774C171.379 62.3667 172.715 64.8231 173.587 67.7454C174.094 69.4394 174.53 71.6559 174.53 72.5594V73.0817L172.954 72.3758C163.474 68.1548 156.568 63.6231 141.546 51.7787C139.071 49.8305 135.653 47.1764 133.951 45.8917C130.955 43.633 130.547 43.2236 130.913 42.8565C131.236 42.5318 131.011 42.3624 129.534 41.7836C128.704 41.4589 127.734 40.993 127.396 40.753L126.777 40.3013L127.382 40.1601C129.661 39.666 134.401 42.1083 141.251 47.3035C144.233 49.5622 146.652 51.2563 147.918 51.9481C148.185 52.1034 148.354 52.3292 148.41 52.6257C148.466 52.9081 148.748 53.2892 149.17 53.6704C149.535 53.9951 150.182 54.6162 150.618 55.0539C151.04 55.4774 151.715 56.0139 152.095 56.2397C153.375 56.9738 155.147 58.1597 157.862 60.0373C161.899 62.8325 163.291 63.7078 165.542 64.8372C167.356 65.7548 170.676 67.0113 170.83 66.8419C170.859 66.8136 170.676 66.5454 170.423 66.2489C169.93 65.6842 168.636 64.9925 167.778 64.8513C167.37 64.7807 167.103 64.5972 166.583 63.9902C165.739 63.0019 164.698 62.3102 163.643 62.042C163.109 61.9008 162.56 61.6184 162.096 61.2514C160.647 60.0938 156.948 57.2985 154.416 55.4633C148.044 50.8046 144.289 47.7129 141.87 45.0729C141.56 44.7341 141.223 44.4518 141.124 44.4518C140.772 44.4518 138.156 43.0401 136.412 41.9107C134.077 40.386 132.108 39.4401 130.561 39.059C129.422 38.7766 129.253 38.6919 128.676 38.099C127.748 37.1249 126.777 36.4614 124.063 34.9367C120.743 33.0591 119.351 31.8874 118.577 30.3062C118.436 29.9815 117.916 29.4874 117.199 28.951C114.217 26.7346 112.388 24.377 107.508 16.4289C104.877 12.1373 102.556 9.15849 101.867 9.15849C101.276 9.15849 100.531 8.76321 99.7715 8.04323C98.9697 7.28088 98.3368 7.08325 97.2819 7.25266C96.1004 7.43617 95.3268 7.78911 93.7655 8.84792C91.8245 10.1467 91.079 10.4573 89.8412 10.4573C88.7019 10.4573 88.2237 10.2596 86.789 9.18672C85.4528 8.19852 84.3838 7.64793 83.3711 7.46442C82.274 7.25266 81.641 7.42206 80.4736 8.22675C79.8969 8.62204 79.1092 9.13026 78.7295 9.37025C78.1528 9.72319 77.8574 10.0761 77.0275 11.4173C76.4087 12.3914 75.6351 13.4078 75.0865 13.9584C74.4958 14.5372 74.0597 15.116 73.905 15.5113C72.8782 18.1512 71.5561 19.69 67.4208 22.9935C64.8749 25.0264 63.7638 26.0287 62.948 27.0169C62.5119 27.5392 61.9071 28.0616 61.3445 28.3863C59.4738 29.4733 57.364 31.1674 54.5368 33.8073C49.6983 38.3531 48.9387 38.9178 44.916 40.993C42.131 42.4189 40.2744 43.5765 39.557 44.3247L39.1491 44.7624L39.7117 44.6635C40.851 44.4659 41.9904 44.1271 43.1578 43.6471C45.5208 42.673 47.2087 41.6001 51.8081 38.099C53.51 36.8002 55.3807 35.4308 55.9574 35.0355C56.5341 34.6402 57.9688 33.4403 59.1222 32.3815C63.9185 27.9769 67.041 25.6334 70.262 23.9958C71.1763 23.544 71.4154 23.3464 71.6967 22.8382C72.7376 20.9323 74.3692 18.5889 75.8179 16.8807C76.3243 16.2736 76.9713 15.2431 77.562 14.0854C79.1796 10.909 80.558 9.76553 83.0335 9.61024L84.201 9.53966L85.059 10.2596C86.7187 11.6573 87.9143 12.1231 89.785 12.1373C91.5291 12.1514 91.9792 11.9819 94.075 10.5702C95.2565 9.77965 95.9738 9.44084 96.4942 9.44084C96.8599 9.44084 96.7333 9.83612 96.0723 10.8243C95.805 11.2196 95.6222 11.6008 95.6644 11.6431C95.8472 11.8267 96.6067 11.3749 96.9725 10.8667C97.1834 10.5843 97.3803 10.3302 97.3944 10.302C97.4788 10.2032 97.8726 10.5985 97.8726 10.7961C97.8726 10.8949 97.6054 11.2761 97.2819 11.6573L96.7052 12.3349L97.4647 12.4478C97.8867 12.5043 98.6322 12.5043 99.1245 12.4619C100.109 12.3631 100.053 12.2925 99.7574 13.2525C99.6449 13.5913 99.7293 13.5913 100.601 13.3372C101.347 13.1113 101.614 13.1537 101.825 13.5631C102.022 13.9301 101.755 14.2407 101.248 14.2407C100.419 14.2407 100.686 15.116 101.67 15.6101C102.331 15.9489 103.203 16.0336 103.654 15.7936C104.005 15.596 104.005 15.8219 103.64 16.1466C103.33 16.4289 103.274 16.8524 103.513 17.0077C103.597 17.0501 103.907 16.9795 104.202 16.8524C105.271 16.3724 105.482 16.9795 104.54 17.8548C104.033 18.3347 103.921 18.8147 104.287 18.9559C104.526 19.0547 105.187 18.7442 105.454 18.4194C105.679 18.1512 106.171 18.123 106.171 18.363C106.171 18.4618 105.932 18.6736 105.637 18.8289C105.229 19.0547 105.13 19.1959 105.159 19.4641C105.201 19.9018 105.215 19.9159 105.96 19.9865C106.678 20.0712 106.79 20.3253 106.242 20.6782C105.538 21.13 105.96 21.6241 106.72 21.2429C107.268 20.9465 107.986 20.9465 108.098 21.2429C108.14 21.37 108.014 21.6382 107.733 21.9205C107.015 22.6688 107.184 22.9229 108.408 22.9229C109.364 22.9229 109.603 23.1911 109.153 23.7699C108.844 24.1652 108.745 24.744 108.956 24.8852C109.027 24.9275 109.378 24.8569 109.758 24.744C110.546 24.5181 111.024 24.5887 110.883 24.9417C110.489 25.9722 110.827 26.5228 111.854 26.5228C112.43 26.5228 112.487 26.551 112.571 26.9604C112.627 27.2004 113.176 28.1463 113.795 29.0639C114.667 30.3627 114.934 30.8709 114.99 31.365C115.061 31.9015 115.131 32.0144 115.567 32.2544C115.834 32.3956 116.228 32.6779 116.453 32.8897C116.805 33.2285 116.833 33.3132 116.763 34.0897C116.636 35.4449 116.861 35.939 118.211 37.4214C119.041 38.3108 119.745 39.2848 120.42 40.4283C120.954 41.3601 121.84 42.8706 122.375 43.7742C124.035 46.6258 125.385 48.1364 130.505 52.8516C132.98 55.1386 135.132 57.2844 136.482 58.7809C138.845 61.4349 140.111 62.5784 141.419 63.2561C142.249 63.6937 142.348 63.7925 142.784 64.6678L143.234 65.6278H143.979C144.725 65.6278 144.725 65.6278 144.978 66.2348C145.119 66.5595 145.287 67.0395 145.344 67.2936C145.442 67.7454 145.442 67.7454 146.314 67.7454C147.636 67.7454 147.833 68.0842 147.032 68.9171C146.764 69.1994 146.539 69.4818 146.539 69.5665C146.539 69.7924 147.003 69.863 147.524 69.7218C148.326 69.4959 149.071 69.5383 149.071 69.8206C149.071 69.9477 149.141 70.2724 149.24 70.5265C149.395 70.9641 149.451 70.9923 150.112 70.9923C150.759 70.9923 150.843 71.0347 151.448 71.6982C151.94 72.2347 152.236 72.4323 152.63 72.5029C153.052 72.5594 153.15 72.6299 153.08 72.8135C152.798 73.4911 152.7 73.844 152.784 73.9146C152.939 74.0699 153.685 73.9711 154.149 73.7311C154.613 73.5052 154.613 73.5052 154.936 73.9005C155.372 74.4511 155.344 74.6628 154.768 75.1287C154.5 75.3405 154.275 75.5805 154.275 75.6652C154.275 75.764 154.782 75.7922 155.682 75.764C156.456 75.7358 157.088 75.7358 157.088 75.764C157.088 75.7922 156.92 76.0322 156.709 76.3004C156.399 76.724 156.371 76.8228 156.54 76.9357C156.948 77.204 157.426 77.2322 158.157 77.0345C159.297 76.7099 159.564 77.1616 158.706 77.9663C158.439 78.2345 158.214 78.5451 158.214 78.6722C158.214 78.8698 158.312 78.898 158.889 78.8274C159.494 78.7427 159.606 78.7851 160.253 79.2368C160.788 79.6321 161.097 79.7451 161.547 79.7451H162.124L162.068 80.2674C161.969 81.0721 162.11 81.185 162.898 80.9168C163.46 80.7333 163.657 80.7192 164.192 80.8745C164.937 81.0862 165.823 81.9756 166.076 82.7521L166.259 83.2744H167.159C168.13 83.2744 168.214 83.3591 167.891 84.0509C167.806 84.2485 167.778 84.4461 167.82 84.5026C167.975 84.6579 168.721 84.5732 169.143 84.3614C169.354 84.2485 169.705 84.1214 169.93 84.065C170.31 83.9803 170.31 83.9803 170.31 84.6438V85.3214H171.759C173.039 85.3214 173.278 85.3638 173.897 85.6885L174.6 86.0555L174.558 87.0296C174.544 87.5661 174.361 88.7802 174.178 89.7401C173.7 92.0695 173.63 92.9306 173.812 93.9189C173.897 94.3847 173.939 94.7941 173.897 94.8224C173.77 94.9494 172.026 94.1165 170.985 93.4389C170.423 93.0577 169.143 92.0695 168.13 91.2507C165.95 89.4296 164.965 88.7519 163.727 88.1731C163.01 87.8484 162.419 87.3967 161.238 86.2532C160.394 85.4202 158.143 83.4579 156.245 81.8627C152.489 78.7145 149.577 75.891 148.368 74.2393C147.946 73.6464 146.736 72.3758 145.625 71.3594C137.34 63.6937 130.884 57.0727 126.229 51.4399C121.024 45.1576 116.481 38.2402 113.246 31.7038C112.67 30.5462 112.177 29.6286 112.149 29.6568C112.051 29.7557 112.501 31.7603 112.866 32.8756C113.373 34.3861 114.428 36.5602 116.552 40.3719C120.096 46.7811 122.009 49.5764 125.202 53.021C126.004 53.8963 126.819 54.9127 127.03 55.308C127.537 56.2115 142.052 70.8653 144.725 73.1523C145.78 74.0558 146.792 75.0299 146.975 75.3264C148.494 77.8534 151.054 80.338 156.245 84.3332C158.706 86.2249 160.844 88.0319 161.927 89.1472C162.335 89.5707 162.771 89.9095 162.912 89.9095C163.038 89.9095 163.573 90.1354 164.107 90.4036C164.628 90.6719 165.134 90.8978 165.232 90.8978C165.331 90.8978 165.753 91.2366 166.161 91.6601C166.569 92.0695 167.441 92.733 168.088 93.1283C169.565 94.0177 170.521 94.8647 170.887 95.5706C171.084 95.9659 171.252 96.1212 171.492 96.1212C172.012 96.1212 173.489 96.94 173.981 97.5047C175.852 99.6364 175.669 103.999 173.517 108.135C172.757 109.617 171.703 110.944 171.309 110.944C170.957 110.944 170.634 110.535 170.521 109.956C170.451 109.561 170.254 109.335 169.565 108.827C166.54 106.61 162.251 102.502 156.034 95.8388C154.177 93.8624 151.476 91.053 150.028 89.6131C148.565 88.1731 147.383 86.9308 147.383 86.8602C147.383 86.5637 146.047 84.6861 145.006 83.5567C143.375 81.7638 142.46 80.6345 140.899 78.5451C139.521 76.6957 138.142 75.0722 135.484 72.1923C132.432 68.8606 130.884 66.7571 129.689 64.2584C129.098 63.0161 128.859 62.6914 128.001 61.8867C126.637 60.6161 125.427 59.0632 122.923 55.3362C121.742 53.5857 120.406 51.6798 119.941 51.101C119.323 50.3105 118.83 49.4352 118.113 47.8399C117.578 46.64 115.651 42.6589 113.837 39.0025C111.193 33.6944 110.532 32.2544 110.532 31.8027C110.532 31.1674 110.25 30.6874 109.828 30.5745C109.575 30.5039 109.547 30.5745 109.547 31.1956C109.547 31.9297 109.955 33.3415 110.349 33.9908C110.475 34.1885 110.771 34.5555 110.982 34.7955C111.305 35.1485 111.488 35.6285 111.868 37.1249C113.288 42.7859 114.906 46.1035 120.828 55.4774C122.178 57.6091 123.669 60.0373 124.161 60.8985C125.103 62.5784 125.554 63.0866 126.088 63.0866C126.383 63.0866 126.426 63.1431 126.426 63.5949C126.426 63.9902 126.524 64.1878 126.876 64.4701C128.367 65.7407 128.592 66.0089 129.281 67.4348C129.998 68.903 130.73 69.8065 131.306 69.9477C131.56 70.0182 131.602 70.1029 131.531 70.4418C131.363 71.3029 131.813 71.8394 132.685 71.8394C132.994 71.8394 133.036 71.91 133.05 72.4041C133.065 72.7147 133.079 73.0393 133.093 73.1241C133.093 73.1946 133.515 73.604 134.021 73.9993C135.16 74.9311 135.892 75.891 136.201 76.8651L136.44 77.6275H137.101H137.777L137.762 78.2204C137.748 78.7992 137.777 78.8274 138.649 79.4204C139.76 80.1404 139.872 80.3098 139.577 80.8603C139.155 81.7074 139.338 82.0038 140.294 82.0038C140.744 82.0038 140.801 82.0603 141.054 82.625C141.349 83.3168 141.757 83.6132 142.263 83.5144C142.685 83.4438 142.685 83.4862 142.249 84.0085C142.052 84.2344 141.926 84.4744 141.968 84.545C141.996 84.6014 142.376 84.8273 142.812 85.0249C143.642 85.4343 143.909 85.9002 143.6 86.3943C143.515 86.5355 143.445 86.6767 143.445 86.6908C143.445 86.719 143.923 86.7049 144.514 86.6908C145.513 86.6484 145.583 86.6626 145.484 86.9025C145.414 87.0437 145.358 87.4108 145.358 87.7214C145.344 88.286 145.344 88.286 146.455 88.879C147.876 89.6554 148.185 89.9378 148.298 90.6719C148.424 91.3777 148.551 91.5471 149.226 91.886C149.577 92.0695 149.887 92.4083 150.182 92.9448C150.548 93.5942 150.745 93.7777 151.293 94.0177C152.362 94.4553 152.377 94.4694 152.334 95.1188C152.292 95.6412 152.334 95.7118 152.742 95.9659C152.995 96.1212 153.389 96.2906 153.6 96.3329C154.008 96.4317 154.078 96.5306 153.867 96.7706C153.685 96.9682 153.572 97.5894 153.685 97.7729C153.741 97.8717 154.191 97.9564 154.697 97.9846C155.752 98.027 155.893 98.2388 155.387 98.9305C154.88 99.6223 155.091 99.8481 156.16 99.7634C157.609 99.6364 157.862 100.003 157.004 100.949C156.357 101.683 156.484 101.81 157.961 101.909C158.636 101.952 159.128 102.05 159.156 102.149C159.184 102.234 159.015 102.53 158.776 102.813C157.946 103.745 158.411 104.196 159.831 103.857C161.238 103.505 161.997 103.928 161.308 104.662C161.139 104.846 161.027 105.1 161.055 105.255C161.097 105.467 161.238 105.509 162.082 105.509C163.038 105.509 163.066 105.523 163.109 105.89C163.137 106.102 163.052 106.455 162.94 106.695C162.813 106.921 162.715 107.246 162.715 107.415C162.715 107.824 163.432 107.796 164.093 107.344C164.698 106.921 164.853 106.907 165.134 107.231C165.359 107.514 165.331 107.697 164.839 108.728C164.585 109.264 164.557 109.448 164.684 109.617C164.979 109.956 165.246 109.843 165.893 109.151C166.372 108.615 166.54 108.516 166.681 108.657C166.766 108.742 166.962 108.827 167.103 108.827C167.427 108.827 167.413 108.954 167.075 109.391C166.709 109.857 166.723 110.196 167.117 110.394C167.286 110.493 167.652 110.761 167.933 111.001C168.2 111.241 168.552 111.509 168.707 111.594C168.96 111.735 168.946 111.777 168.566 112.751C168.045 114.036 167.103 115.518 165.95 116.859C165.12 117.834 165.021 118.017 164.726 119.161C164.557 119.852 164.248 120.671 164.023 120.996C163.657 121.546 162.841 122.238 162.56 122.238C162.49 122.238 161.533 121.01 160.422 119.514C158.143 116.45 157.44 115.617 156.118 114.417C155.344 113.725 155.021 113.274 154.233 111.806C152.883 109.321 151.856 107.81 150.618 106.497C149.901 105.749 149.254 104.846 148.663 103.815C147.468 101.74 145.864 99.3964 142.924 95.4718L140.491 92.2107V91.4483C140.477 90.7001 140.463 90.6578 139.071 88.9213C137.411 86.832 136.553 85.5614 133.951 81.298C131.728 77.6698 129.056 73.5758 127.495 71.4159C126.608 70.1877 126.426 69.8347 126.426 69.3971C126.426 68.6912 126.383 68.6206 122.262 61.7314C116.341 51.821 113.528 46.6964 113.682 46.1035C113.823 45.5247 113.485 43.9859 112.993 42.9695C112.74 42.4189 112.093 41.3742 111.572 40.6401C111.038 39.906 110.349 38.7766 110.011 38.1272C109.491 37.139 109.406 36.8284 109.406 36.1226C109.406 35.3743 109.308 35.092 108.562 33.6238C107.817 32.1415 105.834 29.2051 105.581 29.2051C105.426 29.2051 105.299 30.038 105.398 30.5039C105.454 30.7439 105.693 31.365 105.918 31.8733C106.143 32.3815 106.875 34.1744 107.536 35.8402C108.956 39.4543 109.378 40.3013 110.686 42.2918C111.952 44.2118 112.219 44.8329 112.219 45.8212C112.219 47.487 114.259 51.5528 119.534 60.3338C122.923 66.0089 124.442 68.7053 124.864 69.8771C125.174 70.6959 125.399 71.0912 127.199 73.957C127.804 74.9311 128.592 76.2581 128.929 76.9216C129.59 78.1781 138.044 91.2366 143.009 98.6623C150.098 109.278 155.668 116.803 161.097 123.128L162.883 125.217L162.799 125.951C162.419 128.831 161.083 131.217 158.622 133.391C156.779 135.043 155.429 136.073 155.161 136.073C154.782 136.073 154.346 135.551 154.036 134.732C153.882 134.337 153.052 133.08 152.18 131.923C149.381 128.182 147.06 124.582 142.953 117.65C137.523 108.46 136.454 106.695 134.921 104.267C133.529 102.093 133.318 101.683 133.318 101.161C133.318 100.102 132.924 98.7893 132.418 98.1823C130.744 96.107 129.337 93.6224 125.666 86.1684C124.091 82.9779 122.347 79.6321 121.798 78.7286C121.123 77.5992 120.659 76.6251 120.377 75.7216C119.801 73.957 119.21 72.5311 117.072 67.8865C114.653 62.6349 113.893 60.8279 112.248 56.3668C111.474 54.2774 110.208 50.974 109.434 49.0399C106.382 41.3601 106.171 40.7389 105.679 37.6049C105.426 35.9673 104.835 34.5979 104.188 34.132L103.766 33.8356L103.836 34.3014C103.893 34.5697 104.047 35.6002 104.216 36.6167C104.694 39.7084 105.538 43.393 106.439 46.287C107.184 48.687 110.588 58.1456 111.966 61.6043C113.049 64.3572 114.793 67.9006 115.862 69.5383L116.706 70.8512L116.467 71.4864C116.2 72.2205 116.298 72.4888 116.945 72.8276C117.171 72.9405 117.382 73.0535 117.41 73.0676C117.424 73.0817 117.283 73.3217 117.072 73.5899L116.692 74.0981L117.058 74.2393C117.48 74.3946 117.705 74.8746 117.705 75.5946C117.705 76.131 118.113 76.6393 118.549 76.6393C118.704 76.6393 118.83 76.724 118.83 76.8228C118.83 76.9357 118.704 77.1334 118.549 77.2745C118.394 77.4157 118.268 77.6839 118.268 77.8816C118.268 78.2204 118.296 78.2204 118.901 78.1498C119.505 78.0651 119.534 78.0651 119.759 78.5733L120.012 79.0816L119.477 79.5051C118.985 79.9004 118.971 79.9286 119.196 80.1827C119.365 80.3804 119.632 80.4509 120.096 80.4509C120.56 80.4509 120.87 80.5356 121.137 80.7474C121.657 81.1568 121.573 81.5803 120.884 81.9333C120.195 82.3003 119.97 82.625 120.181 82.9497C120.349 83.2038 120.659 83.232 121.657 83.0485C122.108 82.9779 122.178 83.0062 122.248 83.2885C122.375 83.7544 122.178 83.9944 121.503 84.2485C120.785 84.5167 120.701 84.672 121.039 85.0814C121.292 85.3779 121.306 85.3779 122.037 85.1661C122.445 85.0391 122.825 84.9826 122.867 85.0249C122.909 85.0673 122.839 85.2649 122.712 85.4485C122.431 85.8861 122.417 86.4367 122.698 86.6626C122.811 86.7614 123.162 86.832 123.472 86.832C123.978 86.8178 124.035 86.8602 124.035 87.1708C124.035 87.4955 123.598 88.0743 123.359 88.0743C123.148 88.0743 122.614 88.6531 122.698 88.7802C122.74 88.8507 123.317 89.0766 123.964 89.2743C125.005 89.599 125.174 89.6978 125.258 90.0084C125.329 90.3189 125.258 90.4601 124.907 90.7566C124.386 91.1801 124.358 91.3354 124.71 91.6319C125.103 91.9848 125.525 92.0554 125.779 91.8154C126.004 91.5754 126.285 91.6319 126.285 91.9283C126.285 92.013 126.116 92.253 125.919 92.4648C125.441 92.973 125.554 93.2977 126.215 93.3118C127.424 93.3542 127.579 93.693 126.763 94.5965C126.369 95.0482 126.299 95.1894 126.44 95.3588C126.651 95.6129 127.087 95.6129 127.832 95.3447C128.156 95.2318 128.451 95.1329 128.465 95.1329C128.493 95.1329 128.535 95.2741 128.578 95.4294C128.634 95.6553 128.55 95.8529 128.24 96.1353C127.832 96.5164 127.692 97.1517 127.973 97.3211C128.043 97.3635 128.296 97.307 128.521 97.18C129.14 96.8694 129.422 96.9117 129.703 97.4058L129.956 97.8576L129.379 98.3799C128.986 98.747 128.845 98.9729 128.901 99.1423C129.014 99.4387 129.52 99.6505 130.069 99.6505C130.533 99.6505 130.856 99.9752 130.73 100.286C130.687 100.413 130.42 100.61 130.139 100.723C129.267 101.09 129.801 101.768 130.983 101.768H131.517L131.419 102.7C131.306 103.787 131.377 103.886 132.291 103.886C132.882 103.886 132.882 103.9 132.811 104.309C132.685 104.944 132.84 105.34 133.529 106.159C133.88 106.568 134.162 107.02 134.162 107.175C134.162 107.316 133.965 107.641 133.726 107.881C133.332 108.276 133.304 108.333 133.529 108.488C133.712 108.629 133.88 108.629 134.345 108.46C135.006 108.234 135.371 108.304 135.498 108.686C135.61 109.053 135.498 109.222 134.921 109.462C134.612 109.589 134.443 109.758 134.443 109.928C134.443 110.253 134.64 110.351 135.695 110.577C136.117 110.662 136.482 110.803 136.511 110.888C136.539 110.958 136.342 111.142 136.061 111.269C135.695 111.453 135.568 111.594 135.568 111.862C135.568 112.257 135.639 112.271 136.848 112.229C137.481 112.201 137.65 112.229 137.734 112.441C137.875 112.808 137.72 113.147 137.312 113.33C137.017 113.457 136.961 113.57 137.003 113.951L137.045 114.403L137.931 114.375C138.761 114.333 138.803 114.347 138.803 114.657C138.803 114.841 138.649 115.137 138.452 115.321C138.255 115.504 138.1 115.73 138.1 115.829C138.1 116.041 138.944 116.309 139.633 116.309C140.238 116.309 140.632 116.648 140.632 117.17C140.632 117.495 140.533 117.622 140.154 117.777C139.9 117.89 139.633 118.045 139.577 118.144C139.408 118.427 139.872 118.737 140.66 118.864C141.954 119.076 142.137 119.838 141.026 120.361C140.308 120.699 140.154 121.052 140.576 121.405C140.758 121.561 140.955 121.532 141.771 121.25C142.671 120.939 142.756 120.925 142.967 121.137C143.276 121.448 143.135 121.758 142.573 121.998C141.996 122.238 141.729 122.563 141.841 122.859C141.94 123.113 142.123 123.142 143.628 123.099L144.711 123.057V123.495C144.711 123.848 144.542 124.116 144.008 124.695C143.22 125.528 143.009 126.149 143.375 126.516C143.642 126.784 143.909 126.699 144.626 126.092C145.077 125.711 145.513 125.711 145.752 126.078C145.963 126.417 145.738 126.756 145.133 127.052C144.556 127.335 144.303 127.673 144.387 128.04C144.5 128.45 144.992 128.506 145.695 128.182C146.455 127.829 146.863 127.815 147.102 128.097C147.369 128.422 147.158 128.958 146.61 129.297C146.061 129.636 145.78 130.059 145.892 130.37C145.991 130.624 146.919 130.624 147.383 130.356C147.777 130.13 148.621 130.087 148.916 130.271C149.254 130.483 148.973 130.836 148.171 131.189C147.369 131.542 147.088 131.965 147.383 132.332C147.608 132.6 148.03 132.6 148.79 132.332C149.113 132.219 149.479 132.12 149.577 132.12C149.929 132.12 149.774 132.53 149.282 132.911C148.888 133.207 148.79 133.377 148.79 133.772C148.79 134.351 149.043 134.478 149.62 134.181C149.845 134.054 150.239 133.956 150.478 133.956C151.082 133.956 151.054 134.464 150.407 135.085C149.915 135.565 149.76 136.059 150.098 136.087C150.323 136.116 150.309 136.116 151.012 135.861C152.25 135.424 152.053 135.791 150.14 137.555C149.141 138.487 147.102 140.435 145.625 141.904C142.657 144.84 142.854 144.741 141.898 143.795C141.265 143.174 140.899 142.454 140.125 140.379C139.76 139.363 138.522 136.694 137.383 134.45C134.879 129.494 134.302 128.139 133.247 124.85C132.347 121.984 131.869 120.756 129.07 114.05C126.594 108.093 125.047 104.535 123.767 101.853C123.219 100.695 122.572 99.114 122.333 98.3235C121.348 95.0906 120.462 92.6765 118.127 86.8037C117.185 84.432 115.919 81.1568 115.3 79.5192C114.695 77.8816 113.935 75.8769 113.612 75.0722C112.641 72.6299 112.093 70.8935 111.572 68.5218C110.883 65.3454 110.7 64.7243 108.97 59.5573C108.126 57.0303 107.156 53.868 106.818 52.5269C106.34 50.6775 105.96 49.5905 105.243 48.0093C104.399 46.1459 104.202 45.5106 103.274 41.7977C102.134 37.2096 101.516 35.1908 100.7 33.525C100.123 32.325 100.095 32.325 99.9121 33.5956C99.7434 34.9085 100.193 36.6873 101.389 39.4543C102.5 41.9954 102.796 42.9553 102.95 44.593C103.232 47.6705 103.358 48.3905 104.047 50.5928C104.427 51.8351 105.257 54.6021 105.89 56.7338C106.523 58.8656 107.395 61.6326 107.817 62.8749C110.968 72.0794 112.135 75.7922 113.26 80.1404C113.767 82.1168 114.076 82.9497 115.131 85.2508C120.265 96.3612 122.262 101.288 125.722 111.297C127.734 117.114 129.829 121.97 130.73 122.859C131.18 123.325 131.349 123.65 131.545 124.426C132.333 127.405 133.838 131.005 136.862 137.203C138.93 141.424 140.772 145.56 141.265 147.071C141.56 147.988 141.476 148.214 140.393 149.202C139.492 150.021 137.861 150.882 135.02 152.012C132.755 152.929 131.672 153.437 131.039 153.889C130.645 154.157 130.645 154.157 130.223 153.861C129.703 153.494 129.408 152.929 128.775 151.108C128.507 150.332 127.635 148.016 126.848 145.955C122.951 135.805 121.32 130.694 120.223 125.132C119.913 123.495 119.393 122.238 119.041 122.238C118.929 122.238 118.83 122.196 118.83 122.153C118.83 121.899 116.664 112.328 116.313 111.015C116.087 110.154 115.609 108.375 115.258 107.062C114.47 104.168 114.484 104.196 112.824 100.159C111.207 96.2341 110.714 94.7659 109.955 91.5189C109.631 90.1213 109.027 87.5519 108.619 85.7873C108.197 84.0226 107.479 80.6203 107.001 78.2345C106.537 75.8487 105.974 72.9264 105.735 71.7688C105.51 70.5971 104.723 67.2089 103.991 64.216C102.12 56.5644 100.742 50.014 99.2651 41.953C98.9979 40.5272 98.7447 39.3696 98.6884 39.3696C98.4915 39.3696 98.5759 44.5506 98.7869 46.6823C99.3073 51.6375 100.672 59.2467 101.867 63.736C103.049 68.1689 103.203 68.9312 103.429 71.6982C103.654 74.3523 103.752 74.804 104.329 75.5099C104.694 75.9758 104.723 76.0463 104.54 76.371C104.301 76.8087 104.287 77.6557 104.54 78.2345C104.638 78.4886 104.976 79.011 105.285 79.4063C105.792 80.0415 105.834 80.1404 105.665 80.3804C105.271 80.9168 105.426 81.7215 106.228 83.2744L106.987 84.7426L106.65 85.0108C106.199 85.3496 106.228 85.4626 106.804 86.112C107.339 86.7049 107.437 87.2414 107.086 87.7072C106.776 88.1308 106.832 88.4413 107.297 88.8225C107.817 89.2601 107.831 89.5284 107.367 89.8248C106.692 90.2625 106.959 90.7283 108.014 90.9542C108.745 91.1095 108.576 92.0836 107.817 92.1965C107.648 92.2248 107.493 92.3518 107.465 92.493C107.423 92.6765 107.62 92.8318 108.197 93.1001C109.406 93.6506 109.519 94.2294 108.478 94.5683C108.197 94.6671 107.929 94.8647 107.873 95.0482C107.676 95.5706 107.831 95.7259 108.619 95.6835C109.027 95.6694 109.434 95.6976 109.519 95.7541C109.842 95.9518 109.688 96.4459 109.111 96.9541C108.464 97.5611 108.52 97.6882 109.547 97.9564C110.785 98.267 110.982 98.747 110.11 99.3258C109.35 99.8199 109.266 99.9187 109.266 100.272C109.266 100.681 109.491 100.78 110.391 100.78C111.629 100.78 111.952 101.627 110.954 102.262C110.644 102.46 110.391 102.714 110.391 102.827C110.391 102.94 110.757 103.222 111.221 103.448C111.671 103.688 112.079 103.97 112.135 104.097C112.29 104.535 112.219 104.733 111.91 104.733C110.996 104.747 110.503 105.283 110.897 105.848C111.08 106.102 111.249 106.144 112.023 106.144C112.895 106.144 112.923 106.159 112.923 106.497C112.923 106.751 112.768 106.949 112.36 107.203C111.868 107.514 111.812 107.599 111.938 107.839C112.135 108.206 112.627 108.516 113.176 108.629C113.795 108.756 113.809 109.278 113.204 109.533C112.684 109.758 112.501 110.055 112.599 110.563C112.67 110.93 112.712 110.944 113.485 110.944C114.273 110.944 114.315 110.973 114.526 111.382C114.793 111.918 114.751 112.003 114.006 112.37C112.698 113.034 112.684 113.485 113.964 113.485C114.751 113.485 115.131 113.683 115.201 114.107C115.229 114.333 115.131 114.417 114.653 114.516C114.118 114.615 114.048 114.671 114.048 115.024C114.048 115.49 114.203 115.645 114.92 115.871C115.384 116.027 115.595 116.252 115.595 116.605C115.595 116.676 115.342 116.732 115.019 116.732C114.484 116.732 114.456 116.747 114.498 117.128C114.526 117.438 114.695 117.594 115.384 117.932C115.862 118.172 116.242 118.469 116.27 118.61C116.341 118.977 116.045 119.274 115.581 119.274C115.272 119.274 115.173 119.344 115.173 119.542C115.173 119.895 115.469 120.121 116.073 120.219C116.355 120.262 116.58 120.318 116.58 120.346C116.58 120.375 116.481 120.615 116.355 120.883C116.017 121.575 116.172 122.026 116.861 122.323C117.607 122.662 117.635 123.128 116.931 123.466C116.439 123.706 116.172 124.186 116.369 124.483C116.411 124.568 116.749 124.638 117.114 124.638C118.029 124.638 118.38 124.765 118.493 125.104C118.563 125.33 118.479 125.499 118.141 125.796C117.789 126.12 117.564 126.191 117.002 126.191C116.341 126.191 116.298 126.219 116.298 126.558C116.298 127.01 116.974 127.32 118.029 127.32C118.465 127.32 118.887 127.405 119.055 127.518C119.294 127.716 119.308 127.744 119.098 127.956C118.985 128.083 118.661 128.295 118.394 128.422C117.86 128.69 117.705 129.142 118.057 129.438C118.183 129.537 118.605 129.692 118.999 129.777C119.674 129.932 119.702 129.96 119.477 130.186C119.337 130.313 119.069 130.469 118.858 130.511C118.141 130.666 117.846 130.836 117.846 131.132C117.846 131.429 118.366 131.739 119.126 131.894C119.477 131.965 119.505 132.021 119.477 132.713C119.463 133.433 119.463 133.433 120.096 133.814C120.94 134.309 120.926 134.633 120.04 135.085C119.224 135.494 119.126 135.664 119.519 136.059C119.759 136.299 119.998 136.356 120.659 136.356C121.461 136.356 121.503 136.37 121.503 136.708C121.503 136.977 121.376 137.118 120.982 137.301C120.42 137.57 120.237 138.05 120.504 138.473C120.631 138.657 120.715 138.657 121.109 138.487C121.967 138.134 122.136 138.191 122.178 138.854C122.22 139.334 122.164 139.475 121.925 139.602C121.77 139.687 121.503 139.715 121.362 139.673C121.165 139.602 121.081 139.645 121.081 139.814C121.081 140.167 121.7 140.704 122.304 140.859C122.6 140.944 122.966 141.099 123.12 141.212C123.373 141.395 123.373 141.424 123.148 141.762C123.022 141.96 122.614 142.299 122.248 142.511C121.868 142.722 121.559 142.92 121.531 142.934C121.503 142.948 121.559 143.104 121.643 143.273C121.798 143.555 121.897 143.569 122.881 143.527L123.964 143.485V144.049C123.964 144.586 123.95 144.614 123.303 144.798C122.431 145.038 122.389 145.405 123.191 145.814C123.795 146.125 124.245 146.181 124.386 145.955C124.527 145.729 124.878 146.068 124.78 146.322C124.738 146.421 124.499 146.647 124.231 146.816C123.289 147.395 123.753 148.355 124.977 148.355C125.765 148.355 125.779 148.638 124.991 149.442C124.245 150.205 124.386 150.416 125.694 150.543C127.016 150.67 127.227 150.727 127.326 150.981C127.565 151.616 126.932 152.026 125.75 152.026C125.132 152.026 125.132 152.026 125.329 152.35C125.455 152.52 125.891 152.788 126.355 152.943C126.805 153.099 127.199 153.296 127.227 153.381C127.298 153.579 125.75 154.002 123.162 154.496C120.293 155.033 118.127 155.795 117.578 156.459C117.466 156.586 117.339 156.684 117.283 156.684C117.114 156.684 116.355 155.019 115.961 153.79C115.426 152.181 114.962 149.753 114.47 146.026C113.739 140.52 113.246 137.923 112.641 136.13C112.304 135.156 112.29 134.478 112.585 134.238C113.092 133.8 113.092 133.574 112.585 132.29C111.376 129.255 110.743 126.12 109.758 118.497C108.802 111.1 108.436 109.039 107.156 104.239C105.806 99.1282 105.384 97.0247 105.243 94.5683L105.145 93.0436L105.524 92.6765L105.918 92.3236L105.37 92.0413C105.06 91.886 104.737 91.6742 104.638 91.5613C104.357 91.2083 101.797 76.1734 100.545 67.463C99.8559 62.6631 99.3917 59.7973 97.6617 49.7458C96.1566 40.9789 95.7628 37.7602 95.805 34.8238L95.8331 32.7626L95.4112 32.1556C94.7501 31.2239 94.6376 31.2803 94.6376 32.4944C94.6376 40.4989 97.0568 59.2467 100.7 79.3216C102.725 90.5307 102.725 90.5025 103.625 93.34C104.483 96.0082 104.596 96.6012 104.694 99.1987C104.807 101.937 105.13 103.773 106.298 108.657C107.508 113.655 107.634 114.361 108.759 121.815C110.391 132.501 112.402 144.459 114.329 154.708C114.709 156.769 115.033 158.491 115.033 158.548C115.033 158.703 113.626 159.466 112.445 159.931C109.111 161.273 105.257 161.569 102.289 160.694L101.572 160.496L101.487 156.995C101.192 145.941 100.165 135 96.9443 108.827C96.2692 103.293 95.4252 95.9659 94.8345 90.4036C94.3985 86.3943 94.3141 85.0391 94.2156 80.5921C94.1593 77.7122 93.9765 73.8158 93.8077 71.7688C92.7528 58.6115 92.6403 56.7621 92.5981 52.4986C92.5559 48.1082 92.5137 47.1764 92.1761 44.3106C91.9229 42.2212 91.6276 40.7248 91.1493 39.2425C90.6992 37.8025 90.6711 37.8731 90.4179 41.0777C90.1507 44.5788 90.2913 48.5882 90.7555 50.5928C91.2056 52.4986 91.2056 52.6539 90.7696 53.0633C90.3617 53.4445 90.3335 53.7127 90.6289 54.6868C90.7836 55.1809 90.8399 55.9715 90.8258 57.4115C90.8258 59.2891 90.8399 59.5008 91.1634 60.1361L91.501 60.8279H91.1212C90.2632 60.8279 90.1929 61.6043 91.0227 61.9996C91.4025 62.1973 91.5432 62.3525 91.5432 62.5925C91.5432 63.0019 91.2056 63.369 90.8258 63.369C90.4742 63.369 90.4883 63.4255 90.9805 64.1454C91.5713 65.0066 91.5713 65.3172 91.0087 65.7125L90.5445 66.0372L91.2478 66.5454C91.6416 66.8277 91.9651 67.096 91.9651 67.1383C91.9651 67.1665 91.7119 67.463 91.3884 67.7736L90.8118 68.3383L91.2618 68.7195L91.6979 69.0865L91.4728 69.8206C91.2618 70.5124 91.2759 70.5688 91.5432 71.0206C91.6979 71.2747 91.8948 71.8111 91.9792 72.2205C92.1339 72.8841 92.1199 72.997 91.8948 73.2511C91.7541 73.4064 91.5572 73.5335 91.4447 73.5335C91.304 73.5335 91.3322 73.6887 91.5713 74.1264C91.8526 74.6628 91.8948 75.0158 91.9651 77.204C92.0355 79.4486 92.0636 79.731 92.359 80.2251C92.7528 80.8886 92.6825 81.1568 92.1058 81.1568C91.4728 81.1568 91.5291 81.6791 92.2464 82.3285C92.9778 82.9779 93.006 83.4156 92.3308 83.4156C92.0636 83.4156 91.7963 83.4862 91.7541 83.5709C91.6979 83.6415 91.9229 84.1073 92.2324 84.5732C93.006 85.7308 92.9778 86.1402 92.1058 86.2673C91.8385 86.2955 91.7541 86.3943 91.7541 86.6484C91.7541 86.9167 91.9089 87.0861 92.3871 87.3684C93.3717 87.9472 93.5545 88.9213 92.6684 88.9213C92.1058 88.9213 92.0073 89.2178 92.373 89.8107C92.7809 90.4742 92.7528 90.7425 92.2464 90.9119C92.0214 90.9966 91.8245 91.1236 91.8245 91.1942C91.8245 91.406 92.3449 91.8577 92.9638 92.1683L93.5405 92.4789L93.1888 92.8459C92.4152 93.6647 92.4434 94.2577 93.2732 94.5683C93.8218 94.7659 93.7233 95.1329 93.0482 95.4718C92.359 95.8106 92.3871 96.22 93.1185 96.6153C93.8358 96.9964 93.8218 97.3494 93.0904 97.6458C92.2886 97.9564 92.359 98.3799 93.231 98.5917C93.7233 98.7188 93.8921 98.8317 94.0046 99.1423C94.1593 99.594 93.9624 99.7917 93.3435 99.7917C92.7809 99.7917 92.8231 100.3 93.4561 101.048L93.9765 101.641L93.5827 102.05L93.2029 102.446L93.4983 102.742C93.6811 102.926 93.9765 103.039 94.2859 103.039C94.6798 103.039 94.7782 103.095 94.7782 103.307C94.7782 103.66 94.4125 104.027 94.075 104.027C93.9343 104.027 93.6952 104.14 93.5264 104.267C93.2732 104.493 93.2592 104.563 93.4139 104.86C93.4983 105.057 93.864 105.41 94.2156 105.65C94.9048 106.13 95.2283 106.737 94.947 107.02C94.8626 107.104 94.4407 107.175 93.9906 107.161C93.3295 107.147 93.217 107.175 93.2873 107.359C93.3295 107.486 93.3717 107.641 93.3717 107.711C93.3717 107.782 93.7233 108.064 94.1453 108.333C94.5672 108.601 94.9892 108.968 95.0736 109.123C95.3268 109.603 95.0314 110.055 94.3281 110.253C93.5827 110.464 93.3717 110.62 93.3717 110.958C93.3717 111.311 93.5686 111.396 94.5532 111.495C95.2705 111.566 95.4112 111.622 95.4534 111.862C95.5237 112.342 95.158 112.667 94.4547 112.737C93.3717 112.864 93.4139 113.316 94.5391 113.74C95.7628 114.205 95.7628 114.756 94.5391 115.052C93.7655 115.25 93.5264 115.617 93.9343 116.027C94.1312 116.224 94.3985 116.309 94.8908 116.309C95.9738 116.309 96.5364 116.93 95.9457 117.481C95.805 117.594 95.3268 117.834 94.8767 118.003L94.0609 118.314L94.3985 118.751C94.933 119.457 95.4252 119.754 96.0441 119.768C96.5505 119.768 96.6067 119.796 96.6067 120.135C96.6067 120.417 96.5083 120.544 96.1848 120.671C95.9597 120.756 95.58 120.897 95.3549 120.982C94.4547 121.321 94.7079 121.984 95.8753 122.323C96.3114 122.45 96.7755 122.633 96.8881 122.746C97.1975 123.043 96.9021 123.396 96.1848 123.608C95.4112 123.833 95.2002 124.017 95.2002 124.511C95.2002 125.005 95.3127 125.076 96.3395 125.16C97.296 125.259 97.5351 125.499 97.3803 126.205C97.2678 126.685 97.1834 126.699 96.3114 126.389C95.383 126.05 95.2002 126.163 95.2002 127.095C95.2002 128.125 95.4815 128.45 96.3958 128.549C97.6476 128.662 97.732 128.704 97.732 129.142C97.732 129.72 97.4225 129.89 96.2551 129.974C95.2846 130.031 95.2002 130.059 95.2002 130.342C95.2002 130.807 95.5659 131.217 96.3254 131.64C97.1834 132.106 97.2397 132.445 96.5364 132.741C95.9457 132.996 95.8472 133.207 96.0441 133.744C96.1848 134.125 96.227 134.125 96.9162 134.054C97.7461 133.956 98.154 134.125 98.154 134.577C98.154 135 97.7601 135.339 97.1553 135.452C96.5083 135.579 96.0441 135.89 96.0441 136.2C96.0441 136.596 96.3395 136.765 97.2538 136.864C98.3509 136.991 98.5759 137.118 98.5759 137.626C98.5759 138.12 98.2665 138.247 97.3803 138.106C96.9584 138.05 96.6771 138.078 96.5364 138.191C96.2551 138.431 96.2551 139.588 96.5505 140.012C96.7474 140.28 96.874 140.322 97.3663 140.28C99.0119 140.097 98.9697 140.986 97.31 141.537C96.663 141.748 96.5224 141.847 96.4942 142.158C96.438 142.666 96.8318 142.948 97.8304 143.118C98.8854 143.287 99.2792 143.485 99.2792 143.824C99.2792 144.247 98.9416 144.417 97.8867 144.529C96.8037 144.642 96.3817 144.896 96.5224 145.348C96.663 145.772 97.4085 146.125 98.379 146.209C99.2511 146.28 99.2792 146.28 99.2792 146.675C99.2792 147.198 98.9416 147.367 97.957 147.367C97.3382 147.367 97.1694 147.409 97.1694 147.593C97.1694 148.016 97.4647 148.355 98.154 148.708C98.5337 148.892 98.8854 149.118 98.9276 149.202C99.0963 149.485 98.5759 149.866 97.9008 149.965C96.8881 150.106 96.8318 150.176 97.1834 150.967C97.4647 151.588 97.4788 151.8 97.3944 153.494C97.2819 155.597 97.4085 156.063 98.2524 156.628C98.7025 156.939 98.7166 156.939 98.4634 157.249C98.2946 157.447 98.0414 157.574 97.7601 157.588C97.5069 157.588 97.31 157.673 97.31 157.757C97.31 158.026 97.957 158.52 98.6181 158.746C98.9838 158.873 99.2792 159.014 99.2792 159.084C99.2792 159.141 99.0119 159.31 98.6884 159.451C98.168 159.663 97.4929 159.72 94.2156 159.79C91.9511 159.847 90.1929 159.946 89.9819 160.044L89.6021 160.2L89.4896 156.43C89.4193 154.355 89.3911 144.685 89.4333 134.944C89.5459 106.159 89.5037 87.7355 89.3208 78.3333C89.2224 73.477 89.0817 66.2348 89.0114 62.2396C88.8988 55.4209 88.8707 54.6586 88.3925 50.014C87.9002 45.0306 87.7595 42.1083 87.9565 40.0048C88.069 38.706 87.9002 37.8731 87.4079 37.2943L87.0844 36.9272L86.9859 41.5013C86.8593 47.3882 87.1125 62.409 87.4642 70.837C87.858 80.0415 87.9424 87.6508 87.7455 97.2505C87.5064 108.389 87.5064 108.869 87.7173 112.427C87.9846 116.93 88.0268 151.63 87.7736 154.708C87.5626 157.291 87.0985 161.075 86.8593 162.261L86.6765 163.108L86.0576 163.221C84.8339 163.447 83.1601 163.235 81.2191 162.614C79.4187 162.049 79.3906 162.035 77.4917 162.077C75.7476 162.105 75.5225 162.077 74.9881 161.795C74.6505 161.626 74.3832 161.4 74.3832 161.301C74.3832 161.202 74.5942 160.073 74.8615 158.802C76.7181 149.908 77.5339 141.678 78.5326 122.097C79.2218 108.431 79.475 104.86 81.205 83.8391C83.0335 61.6749 83.5399 53.501 83.7509 41.8683L83.8493 36.8143L83.4836 36.9837C82.696 37.3508 82.6116 37.6472 82.5975 40.4283C82.5975 42.6165 82.5412 43.2659 82.1896 45.1576C81.8098 47.1623 81.7817 47.6141 81.7676 50.5928C81.7676 53.8398 81.7676 53.8398 81.3879 54.5033L81.0222 55.1668L81.2894 55.6892C81.5285 56.1692 81.5285 56.2256 81.3175 56.3809C81.1347 56.5221 81.1206 56.6774 81.2191 57.3832C81.3738 58.4844 81.3316 58.7103 80.9096 59.1479L80.558 59.515L80.994 59.8679L81.4301 60.2067L81.0644 61.1526C80.6705 62.1973 80.6283 62.7619 80.8815 63.4537C81.0081 63.8349 80.98 64.1313 80.6424 65.4019C80.2345 66.9266 80.2345 67.1383 80.6565 68.2395C80.6986 68.3383 80.5439 68.6489 80.3048 68.9171C80.0657 69.1853 79.8688 69.4536 79.8688 69.4959C79.8688 69.5524 80.0235 69.8065 80.2064 70.0465C80.7971 70.837 80.7971 71.077 80.1923 71.3735C79.5312 71.6841 79.4328 72.1217 79.911 72.6017C80.2204 72.9123 80.2345 72.9688 80.0235 73.1664C79.8688 73.3217 79.7703 73.7452 79.7281 74.4228L79.6578 75.4393L79.1655 75.5946C78.4622 75.8205 78.4763 76.131 79.2218 76.5687C79.5593 76.7663 79.8829 77.0345 79.925 77.1475C79.9672 77.2604 79.8266 77.7263 79.6015 78.1639C78.9264 79.5192 78.8279 79.9427 79.0811 80.4368C79.3906 81.0297 79.3624 81.2839 78.9545 81.4674C78.7576 81.5521 78.6029 81.7356 78.6029 81.8768C78.6029 82.018 78.7576 82.2438 78.9545 82.3709C79.4046 82.6674 79.3906 82.865 78.9405 83.4015C78.5748 83.8391 78.5748 83.8532 78.7998 84.4179C79.0108 84.9402 79.0108 85.0532 78.7998 85.8579C78.6591 86.3943 78.6029 86.9731 78.6591 87.3684C78.842 88.7519 78.842 88.6954 78.3778 88.8507L77.9277 88.9919L78.2653 89.6272C78.617 90.3189 78.7154 91.1519 78.4341 91.1377C77.4636 91.1095 77.4073 91.3072 78.1106 92.3377C78.7013 93.1848 78.7013 93.5518 78.1106 93.8624C77.8855 93.9753 77.6605 94.0883 77.6324 94.1024C77.5058 94.173 78.0543 94.8365 78.3216 94.9212C78.7576 95.0624 78.5888 95.3306 78.0262 95.4153C77.3511 95.5141 77.2948 96.0506 77.8855 96.7282C78.1247 96.9964 78.3216 97.3211 78.3216 97.4341C78.3216 97.7447 77.8715 97.9705 77.6042 97.8011C77.2807 97.5894 77.1963 97.6458 77.1963 98.1258C77.1963 98.4646 77.337 98.6905 77.7871 99.0999C78.3497 99.6364 78.3638 99.6505 78.1106 99.9328C77.9559 100.102 77.6746 100.215 77.3792 100.215C76.9854 100.215 76.915 100.258 76.915 100.554C76.915 100.766 77.0979 101.034 77.4073 101.302C78.0403 101.81 78.1247 102.347 77.5902 102.403C77.3933 102.432 77.0557 102.545 76.8447 102.657L76.4509 102.855L77.0979 103.392C77.773 103.956 78.1387 104.592 77.9699 104.888C77.8996 104.987 77.6464 105.015 77.2526 104.959C76.4087 104.846 76.2118 104.959 76.2118 105.509C76.2118 105.961 76.2539 105.989 76.7884 106.102C77.5761 106.257 77.7871 106.582 77.3792 107.02C76.8025 107.641 76.7462 108.05 77.1119 108.94C77.7308 110.45 77.759 110.366 76.7462 110.408C75.9445 110.45 75.8601 110.478 75.9023 110.733C75.9304 110.888 76.1274 111.283 76.3665 111.608C76.8869 112.342 76.8869 112.554 76.3524 112.78C76.1274 112.878 75.9304 113.005 75.9304 113.062C75.9304 113.133 76.2539 113.457 76.6478 113.796C77.1823 114.262 77.3229 114.474 77.2526 114.657C77.1401 114.954 76.6478 115.18 76.1274 115.18C75.5788 115.18 75.6913 115.688 76.3524 116.097C76.6618 116.295 76.915 116.521 76.915 116.591C76.915 116.662 76.7181 117.043 76.4931 117.41C75.9304 118.342 75.9445 118.723 76.5775 119.245C77.2948 119.838 77.1963 120.177 76.3102 120.234L75.621 120.276L75.8742 120.657C76.0711 120.954 76.1414 121.321 76.1414 122.323C76.1414 123.353 76.1977 123.678 76.3946 123.89C76.5212 124.045 76.6337 124.299 76.6337 124.469C76.6337 124.906 75.9726 125.626 75.5647 125.626C75.0021 125.626 75.2272 126.459 75.9867 127.165C76.4368 127.589 76.2961 127.899 75.5085 128.309C75.199 128.464 74.9459 128.662 74.9459 128.746C74.9459 128.944 75.9304 129.932 76.1977 130.017C76.4931 130.116 76.1414 130.596 75.4803 131.005C74.8193 131.429 74.8052 131.711 75.4522 132.021C75.9023 132.247 75.9445 132.304 75.9023 132.798C75.8601 133.292 75.8179 133.334 75.185 133.532C74.5942 133.716 74.5239 133.786 74.552 134.097C74.5802 134.337 74.7771 134.548 75.199 134.774C75.8038 135.113 76.1555 135.551 76.0008 135.791C75.9586 135.876 75.6632 135.932 75.3538 135.932C74.7067 135.932 74.2426 136.13 74.2426 136.412C74.2426 136.666 74.9177 137.245 75.4944 137.471C75.7335 137.584 75.9304 137.753 75.9304 137.852C75.9304 138.092 75.4241 138.417 74.8474 138.544C73.8628 138.741 73.905 139.377 74.9177 139.899C75.9726 140.435 75.8601 141.297 74.7208 141.297C74.0879 141.297 74.0175 141.621 74.5239 142.2C75.185 142.948 75.1006 143.202 74.0316 143.555C73.5252 143.725 73.1173 143.894 73.1173 143.922C73.1173 144.205 73.483 144.544 73.9191 144.685C74.6083 144.911 74.9459 145.221 74.9459 145.602C74.9459 146.012 74.6786 146.238 74.0457 146.336C73.6237 146.407 73.5393 146.478 73.5393 146.746C73.5393 147 73.68 147.141 74.0738 147.325C74.3973 147.48 74.6083 147.692 74.6364 147.875C74.6786 148.129 74.5802 148.186 74.116 148.271C73.5393 148.355 73.1173 148.765 73.1173 149.231C73.1173 149.372 73.3705 149.64 73.68 149.838C74.4817 150.346 74.4395 150.699 73.5674 150.812C73.1877 150.854 72.7657 150.981 72.625 151.094C72.3859 151.263 72.3719 151.32 72.5547 151.532C72.6672 151.673 73.0048 151.927 73.2861 152.11C73.8769 152.492 74.0175 153.014 73.5393 153.014C73.3705 153.014 73.047 153.113 72.822 153.24C72.4 153.452 72.4 153.466 72.6391 153.748C72.7798 153.903 73.1033 154.115 73.3565 154.214C74.1863 154.567 73.8909 155.075 72.7798 155.216C72.2734 155.287 72.1328 155.357 72.2031 155.527C72.4985 156.289 72.836 157.997 72.836 158.689C72.836 159.141 72.822 159.508 72.7938 159.508C72.7657 159.508 72.3156 159.282 71.767 159.014C69.4322 157.828 66.9566 157.263 63.595 157.15L61.1617 157.066V156.6C61.1617 156.346 61.0913 156.12 61.0069 156.092C60.8944 156.049 61.1054 154.708 61.6961 151.743C62.1603 149.372 62.9339 145.122 63.3981 142.285C63.8622 139.447 64.7202 134.224 65.311 130.666C66.9707 120.516 67.7302 116.916 68.9821 113.02C69.9245 110.126 70.0511 109.561 70.1636 108.191C70.262 106.893 70.3605 106.483 70.7403 105.664L71.1904 104.69L71.3029 101.218C71.4154 97.3211 71.4295 97.2223 72.822 90.5448C74.7208 81.4391 77.5058 65.6983 78.4622 58.6397C79.475 51.1716 80.136 42.7295 80.1501 37.3508V36.1084L79.7422 36.3202C79.0249 36.7014 78.8561 37.3084 78.9545 39.2707C79.053 41.1766 79.0389 41.3319 76.8588 57.6515C76.2821 61.9996 75.6773 66.7571 75.5085 68.2395C75.3397 69.7218 75.0303 71.6417 74.8052 72.5452C73.7644 76.6957 72.7938 82.0744 71.2185 92.4507C69.2493 105.312 68.6164 108.516 66.5628 115.956C65.0859 121.292 65.0015 121.589 64.6921 123.015C64.2983 124.793 63.5387 129.382 62.7089 135.014C61.3023 144.628 60.6694 148.158 59.6004 152.52C58.5877 156.67 58.3345 157.447 57.9547 157.503C57.7859 157.531 57.6453 157.602 57.6453 157.673C57.6453 157.884 56.7029 158.11 56.295 158.011C56.0699 157.955 55.5495 157.659 55.1275 157.362C54.1711 156.642 53.4256 156.388 50.7813 155.837C48.1511 155.301 47.2368 154.976 46.5195 154.299C45.8584 153.649 45.8443 153.423 46.3225 151.673C46.5195 150.967 46.8008 149.654 46.9555 148.751C47.3071 146.689 47.6869 145.391 48.9106 141.96C50.5563 137.372 50.6406 137.047 50.8938 134.45C51.1189 132.233 51.2314 131.782 52.3988 128.76C53.2287 126.558 53.5522 125.513 54.0023 123.396C55.2541 117.438 57.0123 110.789 59.741 101.698C60.2052 100.145 60.81 98.0552 61.0773 97.0529C61.4289 95.74 61.668 95.1329 61.9212 94.8647C62.2728 94.4977 62.2869 94.413 62.2588 93.1424C62.2306 91.8295 62.2306 91.7871 63.0183 89.7684C66.1127 81.7215 66.394 80.7898 67.6177 74.3099C68.6867 68.7053 69.0946 67.1242 70.1073 64.7101C70.7825 63.0866 71.0919 62.0984 71.4295 60.4749C71.6686 59.3032 72.3719 56.3103 72.9907 53.7974C73.5956 51.2846 74.327 48.1364 74.6083 46.8094C75.6773 41.6424 76.479 38.5084 77.1541 36.7437C77.2807 36.4049 76.69 36.5179 76.2118 36.9131C75.5647 37.4637 75.1287 38.4096 73.4549 42.8565C73.0611 43.9012 72.8923 44.9035 72.6954 47.2752C72.4703 50.014 72.2734 51.4257 72.0624 51.6516C71.964 51.7645 71.8233 52.0469 71.7811 52.2869C71.6405 52.8939 71.3169 53.3457 71.0356 53.3457C70.8387 53.3457 70.7965 53.501 70.7825 54.3763C70.7825 55.675 70.248 57.228 69.4462 58.3009C68.8414 59.1197 68.7992 59.3314 69.1087 60.3479C69.2212 60.729 69.3196 61.2796 69.3196 61.562V62.0984H68.6164C68.1522 62.0984 67.9131 62.1549 67.899 62.2678C67.8568 62.6772 67.9694 62.889 68.3632 63.2278C68.6445 63.4678 68.7711 63.6937 68.743 63.8631C68.6867 64.1031 68.546 64.1454 67.8287 64.1878L66.9848 64.2301L67.041 65.5995C67.0692 66.376 67.1817 67.1524 67.2942 67.3783C67.5474 67.9006 67.5474 67.8865 67.2098 67.8865C66.8301 67.8865 66.2252 68.183 66.2252 68.3806C66.2252 68.4653 66.4503 68.7477 66.7175 69.0159C67.0973 69.383 67.2098 69.6088 67.2098 69.9759C67.2098 70.4418 67.1958 70.4559 66.7597 70.3994C66.5065 70.3571 66.183 70.2865 66.0564 70.2159C65.8314 70.1312 65.8033 70.2018 65.8033 70.71C65.8033 71.3876 66.0002 71.8394 66.2956 71.8394C66.5487 71.8394 66.5628 71.9947 66.3378 72.3052C66.183 72.5029 66.0705 72.517 65.6767 72.4041C65.4094 72.3335 65.1422 72.3052 65.0859 72.3476C64.8327 72.5029 64.9734 73.2088 65.3813 73.8158C65.8033 74.4511 65.9158 74.804 65.6767 74.804C65.6064 74.804 65.2969 74.7193 64.9875 74.6064C64.1295 74.2958 63.9607 74.677 64.678 75.3264C65.3391 75.9193 65.2406 76.1875 64.3686 76.244L63.6231 76.2863L63.5809 76.964C63.5528 77.4581 63.6653 78.0228 63.9748 78.9122C64.2139 79.6039 64.3686 80.2392 64.3264 80.3098C64.2139 80.4933 63.1449 80.7615 62.8354 80.6909C62.3291 80.5498 62.5401 81.1286 63.1308 81.5239C63.595 81.8344 63.6934 81.9756 63.6934 82.3709C63.6934 82.9215 63.4543 83.0909 62.4979 83.232C61.7524 83.3309 61.7524 83.4862 62.4416 83.9379C63.1308 84.4038 63.2715 84.5308 63.2715 84.7567C63.2715 84.912 63.0886 84.9685 62.5682 84.9685C61.9775 84.9685 61.8649 85.0108 61.8649 85.2367C61.8649 85.3779 62.0618 85.7308 62.2869 86.0273C62.7229 86.5779 62.7792 86.7614 62.5963 87.0437C62.526 87.1708 62.3432 87.1708 61.8931 87.0437C61.246 86.8743 60.8522 87.0014 60.7678 87.4108C60.7397 87.5378 60.9788 87.919 61.2882 88.2578C61.6117 88.5966 61.8649 89.006 61.8649 89.1613C61.8649 89.5143 61.3304 89.7684 60.599 89.7684C60.2896 89.7684 60.0364 89.8248 60.0364 89.9095C60.0364 90.2342 60.374 90.7283 60.7397 90.9542L61.1476 91.1942L60.6272 91.6742C60.1067 92.1401 60.1067 92.1542 60.1067 93.3259V94.4977L59.3753 94.54C58.4892 94.5965 58.4189 94.7941 59.0518 95.5C59.6144 96.1494 59.5019 96.347 58.6299 96.2906C57.9969 96.2341 57.9266 96.2623 57.9266 96.5306C57.9266 96.7 58.0813 97.0811 58.2782 97.3917C58.4751 97.7023 58.6299 98.0835 58.6299 98.2388C58.6299 98.4788 58.5314 98.5211 58.0672 98.5211C57.5749 98.5211 57.5046 98.5635 57.5046 98.8599C57.5046 99.0434 57.7015 99.4246 57.9266 99.7211C58.4611 100.399 58.4892 101.006 57.9828 101.232C57.7156 101.359 57.5187 101.359 57.2233 101.246C56.4778 100.963 56.4356 101.57 57.153 102.248C57.4202 102.516 57.6453 102.841 57.6453 102.996C57.6453 103.307 57.1248 103.603 56.5763 103.603C56.2387 103.603 56.2247 103.646 56.309 104.069C56.3653 104.309 56.4216 104.62 56.4638 104.747C56.5763 105.142 56.1684 105.495 55.6198 105.481C55.1838 105.467 55.1135 105.509 55.1135 105.792C55.1135 106.003 55.2823 106.257 55.5917 106.497C56.1121 106.893 56.309 107.457 56.0137 107.711C55.859 107.839 55.648 107.824 55.1697 107.697C54.6212 107.542 54.5087 107.542 54.3117 107.74C54.1008 107.951 54.143 108.022 54.8181 108.657C55.4229 109.236 55.5495 109.434 55.5073 109.758C55.4651 110.168 55.4651 110.168 54.368 110.21L53.2568 110.253L53.8335 110.662C54.2977 111.001 54.4102 111.17 54.4102 111.523C54.4102 111.89 54.368 111.947 54.1711 111.862C53.5522 111.594 53.285 111.608 53.285 111.904C53.285 112.243 53.4819 112.413 54.1711 112.624C54.6071 112.78 54.6915 112.864 54.6915 113.189C54.6915 113.881 54.2836 114.093 53.2146 113.98C52.5395 113.909 52.3004 113.937 52.3004 114.05C52.3004 114.248 53.1865 115.151 53.6929 115.476C54.2414 115.829 53.946 116.027 52.8489 116.027C52.1597 116.027 51.8784 116.083 51.8784 116.196C51.8784 116.492 52.0472 116.662 52.6801 117.071C53.1302 117.339 53.285 117.537 53.285 117.791C53.285 118.116 53.2428 118.144 52.5817 118.144C51.9628 118.144 51.8784 118.172 51.8784 118.441C51.8784 118.61 52.0613 118.963 52.3004 119.231C52.7364 119.725 52.7927 119.923 52.5958 120.248C52.5114 120.375 52.3426 120.417 52.0753 120.346C51.2455 120.135 50.9642 120.177 50.922 120.488C50.8938 120.714 51.0204 120.883 51.3721 121.109C51.8503 121.405 52.3004 121.899 52.3004 122.125C52.3004 122.196 51.8925 122.238 51.3861 122.238C50.6828 122.238 50.4719 122.281 50.4719 122.436C50.4719 122.704 50.8094 123.029 51.3439 123.311C51.7096 123.495 51.7518 123.579 51.6674 123.975C51.5127 124.68 51.3299 124.822 50.6828 124.737C50.3734 124.695 50.0077 124.624 49.8811 124.568C49.6701 124.483 49.6279 124.539 49.6279 124.836C49.6279 125.231 49.8248 125.457 50.6125 125.965C50.9923 126.205 51.1048 126.36 51.1048 126.685C51.1048 127.151 50.9642 127.179 49.867 126.967L49.3326 126.855L49.3747 127.335C49.4029 127.716 49.5295 127.885 49.9374 128.153C50.5984 128.577 50.6828 129.071 50.0921 128.916C49.4029 128.732 48.8684 128.789 48.8121 129.029C48.7981 129.156 48.995 129.523 49.2763 129.847C49.5435 130.186 49.7686 130.567 49.7686 130.723C49.7686 130.963 49.6561 130.991 48.8543 130.991C48.0385 130.991 47.9401 131.019 47.9401 131.273C47.9401 131.457 48.1229 131.64 48.4746 131.796C48.8684 131.993 49.009 132.149 49.0372 132.445C49.0794 132.826 49.0653 132.826 48.3058 132.826C47.8697 132.826 47.5181 132.883 47.5181 132.953C47.5181 133.306 47.7431 133.574 48.2776 133.843C48.9106 134.167 49.0653 134.323 49.0653 134.69C49.0653 134.916 48.9247 134.944 47.9401 134.944C46.9273 134.944 46.8148 134.972 46.8148 135.212C46.8148 135.367 47.068 135.791 47.3774 136.144C47.9541 136.807 48.362 137.485 48.362 137.767C48.362 137.852 47.926 137.908 47.2368 137.908C46.2241 137.908 46.1115 137.937 46.1115 138.177C46.1115 138.445 46.7164 139.038 46.9977 139.038C47.2509 139.038 47.6588 139.49 47.6588 139.758C47.6588 139.899 47.504 140.125 47.3212 140.238C47.0399 140.421 46.8711 140.435 46.4351 140.322C45.6052 140.082 45.4083 140.125 45.4083 140.52C45.4083 140.732 45.5489 140.958 45.774 141.113C46.421 141.551 46.9555 142.115 46.9555 142.341C46.9555 142.525 46.7867 142.567 46.0694 142.567C44.8035 142.567 44.6909 142.751 45.4927 143.569C45.9287 144.021 46.1256 144.318 46.0694 144.459C45.9287 144.826 45.5349 144.896 45.0988 144.642C44.8597 144.515 44.5221 144.402 44.3252 144.402C43.7767 144.402 43.9455 144.967 44.5925 145.32C44.9722 145.518 45.127 145.701 45.127 145.913C45.127 146.209 45.0566 146.238 44.4237 146.238C44.0439 146.238 43.7204 146.266 43.7204 146.308C43.7204 146.351 43.9455 146.704 44.2127 147.099C44.4799 147.494 44.705 147.889 44.705 147.988C44.705 148.073 44.7472 148.285 44.7894 148.454C44.8738 148.751 44.8316 148.779 44.3956 148.779C44.1283 148.779 43.5094 148.581 43.0171 148.341C42.1029 147.875 40.3728 146.365 39.9649 145.659C39.7821 145.362 39.5148 145.193 38.9522 145.024C38.1083 144.784 37.4331 144.346 35.9141 143.118C34.9154 142.313 33.9167 141.72 33.537 141.72C33.1009 141.72 33.1713 141.367 34.0011 139.701C35.0139 137.64 35.9844 136.031 37.194 134.421C37.8832 133.504 38.0942 133.123 38.0942 132.756C38.0942 131.753 38.6287 130.045 39.2476 128.986C42.7921 123.113 45.4927 116.888 51.0345 101.839C51.6674 100.13 52.9333 96.8835 53.8476 94.6388C55.437 90.7001 56.4638 88.0461 58.2079 83.2038C60.0223 78.2204 63.8622 68.1124 66.9707 60.1926C67.885 57.835 68.4054 56.2821 68.6726 55.0962C69.0805 53.2186 70.2902 48.9693 71.8374 43.9718C72.7376 41.0636 72.836 40.6119 72.836 39.5954L72.822 38.4519L72.4141 38.9037C71.9921 39.3696 71.767 40.0189 71.3591 41.9813C71.1763 42.8001 70.8387 43.6471 70.0933 45.0871C68.8696 47.4588 68.8133 47.6141 68.546 49.6611C68.3351 51.3128 68.1522 51.7645 67.5615 52.1598C67.041 52.4986 66.4643 54.1927 65.1703 59.2044C64.889 60.2914 64.467 61.8161 64.2279 62.5925C63.4121 65.2607 60.3318 73.237 59.2487 75.4675C57.8141 78.4322 57.7437 78.6016 57.2233 80.4651C56.3934 83.4015 55.7464 85.2649 53.8054 90.3331C53.2287 91.8436 52.427 94.0318 52.0191 95.2035C49.9655 101.203 49.4029 102.672 47.3493 107.627C40.9636 123.015 36.547 132.247 32.6649 138.36C31.9054 139.546 31.9054 139.546 31.0614 139.73C29.894 139.97 29.7815 139.899 27.095 137.174C24.9429 135 24.521 134.506 24.085 133.589C23.6067 132.629 23.5645 132.431 23.5505 131.316C23.5364 130.102 23.5505 130.073 23.9162 129.89C24.1271 129.791 24.5772 129.382 24.9008 128.972C25.2383 128.577 25.8009 127.956 26.1526 127.603C26.6027 127.151 26.8418 126.77 26.9824 126.262C27.1372 125.725 27.3903 125.344 28.0655 124.638C28.7547 123.918 29.1485 123.311 29.9081 121.815C30.4285 120.77 31.7647 118.469 32.8618 116.704C34.9998 113.288 36.125 111.227 36.8283 109.547C37.0674 108.968 37.4894 108.234 37.7988 107.895C38.5584 107.076 39.0929 105.961 39.6414 104.027C40.1759 102.149 40.5979 101.246 41.3293 100.356C42.2154 99.2693 42.3279 99.0293 42.4545 97.7447C42.5952 96.347 42.8905 95.6412 44.4237 92.9448C44.9582 92.013 45.999 89.9519 46.7445 88.3566C50.7813 79.7874 54.143 72.39 57.2374 65.2748C58.1094 63.2561 59.3894 60.4891 60.0786 59.1338C62.4275 54.5174 63.6231 51.7363 66.8301 43.4495C67.7162 41.1624 68.7711 38.6355 69.1649 37.8308C69.9104 36.3061 70.0511 35.5579 69.6994 35.0779C69.5166 34.8379 69.4744 34.8661 69.0524 35.4308C68.4195 36.3202 67.3645 38.4096 66.3659 40.8519C65.4376 43.0824 64.5374 44.9741 64.1013 45.5953C63.9607 45.7929 63.806 46.2447 63.7497 46.5835C63.4262 48.8564 62.8073 50.4658 60.6412 54.7574C59.7973 56.4233 58.9534 58.2868 58.7705 58.8797C58.5736 59.4867 58.3485 59.9808 58.2642 59.9808C58.1798 59.9808 57.9969 60.1361 57.8703 60.3338C57.7437 60.5314 57.5046 60.6867 57.3499 60.6867C57.1248 60.6867 57.0826 60.7432 57.153 60.9267C57.2092 61.0679 57.2796 61.3784 57.3218 61.6184C57.3921 62.0278 57.3499 62.0984 56.8857 62.3102C56.2247 62.6349 55.9011 63.1855 55.4792 64.7666C55.0432 66.3901 54.7196 67.0254 54.157 67.3924C53.7351 67.6607 53.721 67.7171 53.7069 68.6347V69.6088L53.1865 69.5524C52.7364 69.51 52.652 69.5524 52.6098 69.8065C52.5817 69.9759 52.6661 70.3571 52.7786 70.6394C52.9052 70.9359 53.0037 71.2888 53.0037 71.43C53.0037 71.7688 52.4973 71.9806 51.7237 71.9806C51.0345 71.9806 50.9782 72.3052 51.5971 72.8982C51.8221 73.1241 52.0191 73.4064 52.0191 73.5193C52.0191 73.6464 51.6956 73.9287 51.3017 74.1687C50.0499 74.917 49.4732 76.004 49.4591 77.6557C49.4591 78.5451 49.4451 78.6016 49.0653 78.7569C48.7559 78.8839 48.6011 78.8839 48.362 78.7569C48.1089 78.6157 48.0245 78.6298 47.926 78.771C47.8557 78.8839 47.8275 79.0251 47.8557 79.1098C47.8838 79.1804 47.9823 79.491 48.0948 79.7733C48.2214 80.1545 48.2354 80.4227 48.137 80.6909C48.0245 81.0439 47.926 81.0862 47.2649 81.1286C46.3929 81.185 46.2944 81.4391 46.9555 82.0744C47.4618 82.5544 47.49 82.8509 47.0539 82.8509C46.5054 82.8509 46.1537 83.4015 45.7177 84.9685C45.127 87.1425 44.7894 87.6508 44.0158 87.6508C43.636 87.6508 43.5094 88.1449 43.7767 88.5684C43.9033 88.7519 44.0017 89.0625 44.0017 89.2601C44.0017 89.5425 43.9033 89.6413 43.4672 89.7542C43.1859 89.839 42.8624 89.9095 42.7499 89.9095C42.5952 89.9095 42.5811 90.0507 42.6655 90.5731C42.8484 91.8154 42.8202 92.1965 42.553 92.366C42.342 92.493 42.2435 92.4507 41.9763 92.126C41.6246 91.6883 41.3152 91.646 41.0339 91.9707C40.8792 92.1542 40.8932 92.2812 41.1605 92.7754C41.695 93.7777 41.5825 94.0036 40.7385 93.6506C40.5275 93.5659 40.4853 93.6224 40.4853 94.0459C40.4853 94.4553 40.5838 94.6247 40.9917 94.9635C41.8356 95.6694 41.484 95.8247 39.7961 95.4718C39.3601 95.3871 39.332 95.4012 39.4304 95.7118C39.6695 96.4741 39.7821 96.6576 40.1337 96.94C40.3447 97.1094 40.4713 97.307 40.415 97.3917C40.3728 97.4623 39.8524 97.5329 39.2757 97.5329C38.263 97.5329 38.2208 97.547 38.263 97.8435C38.2911 98.0694 38.474 98.2246 38.8678 98.3799C39.6977 98.6905 39.7821 98.7752 39.7821 99.2693C39.7821 100.06 39.6133 100.173 38.8397 99.947C37.8832 99.6787 37.616 99.6787 37.5597 99.9752C37.5316 100.13 37.7707 100.483 38.2208 100.921C38.9803 101.655 39.0788 101.909 38.7131 102.206C38.5443 102.347 38.3615 102.347 37.7707 102.206C36.5048 101.909 36.4767 101.923 36.5048 102.474C36.5189 102.799 36.6314 103.039 36.8564 103.208C37.7707 103.886 37.9536 104.069 37.9536 104.253C37.9536 104.521 37.2503 104.507 36.3501 104.239C35.9141 104.097 35.6046 104.069 35.5202 104.154C35.253 104.422 35.5624 104.944 36.1954 105.326C36.6173 105.58 36.8283 105.806 36.8283 106.003C36.8283 106.399 36.3923 106.37 35.9844 105.933C35.5905 105.509 34.9998 105.453 34.9998 105.848C34.9998 105.989 35.0983 106.342 35.2108 106.61C35.4921 107.288 35.4921 108.177 35.2248 108.079C34.7747 107.895 34.0011 107.81 33.6636 107.895C33.1291 108.036 33.1994 108.502 33.8042 108.742C34.2121 108.926 34.2965 109.024 34.2965 109.377C34.2965 109.886 34.1137 109.928 33.5229 109.533C32.9462 109.151 32.89 109.166 32.89 109.744C32.89 110.408 33.1994 110.987 33.6636 111.198C33.973 111.34 34.0152 111.41 33.8746 111.58C33.6214 111.876 33.3401 111.848 32.8056 111.438C32.5524 111.241 32.2148 111.086 32.0601 111.086C31.821 111.086 31.7647 111.17 31.7647 111.551C31.7647 111.806 31.8632 112.356 31.9898 112.765C32.1023 113.175 32.1726 113.556 32.1304 113.598C32.0882 113.641 31.8913 113.598 31.6944 113.514C31.2724 113.316 31.188 113.316 30.9489 113.457C30.7239 113.613 31.0896 114.587 31.5115 114.911C31.821 115.151 31.7507 115.462 31.399 115.462C31.2865 115.462 31.0052 115.363 30.7801 115.25C30.4004 115.052 30.3582 115.052 30.2316 115.292C30.1331 115.476 30.1753 115.716 30.4004 116.154C30.9208 117.17 30.2597 117.678 29.4439 116.874C29.1907 116.62 28.8954 116.45 28.7969 116.478C28.6984 116.507 28.614 116.93 28.5719 117.594C28.5156 118.469 28.5578 118.709 28.7547 118.907C28.9376 119.09 28.9516 119.189 28.825 119.316C28.6984 119.443 28.5437 119.415 28.178 119.217C27.9108 119.062 27.6435 118.977 27.6013 119.019C27.5591 119.076 27.5873 119.344 27.6717 119.626C27.8404 120.276 27.7561 120.502 27.2497 120.77C26.7855 121.01 26.7855 120.996 27.0106 121.631C27.2356 122.266 27.0106 122.521 26.5042 122.182C26.3073 122.055 26.0541 121.956 25.9275 121.956C25.59 121.956 25.6603 122.831 26.0541 123.41C26.2932 123.763 26.3495 123.946 26.237 124.059C25.9557 124.342 25.6322 124.229 24.957 123.636C24.1131 122.888 23.9724 123.156 24.5772 124.412C25.3649 126.05 24.9851 126.544 23.9302 125.259C23.663 124.92 23.3817 124.638 23.3113 124.638C23.1144 124.638 23.1707 125.372 23.3957 125.768C23.5786 126.106 23.6771 126.756 23.5364 126.756C23.5083 126.756 23.3254 126.685 23.1285 126.6C22.7487 126.417 22.594 126.12 22.2846 124.808C22.1017 124.102 21.9048 123.735 21.3422 123.071C20.9483 122.619 19.8794 121.208 18.9651 119.951L17.3194 117.65L17.6429 116.69C18.1774 115.109 18.7541 114.248 19.8653 113.358C21.2859 112.229 21.8626 111.608 22.0595 110.987C22.3549 110.027 22.8191 109.462 23.4379 109.278C24.1412 109.067 24.9148 108.206 25.9838 106.469C27.742 103.603 28.9235 101.966 31.1458 99.2976C34.1137 95.74 34.7325 94.893 36.6877 91.7871C39.0788 87.9896 39.8946 86.7896 40.5557 86.0979C40.8932 85.7449 41.6809 84.5732 42.3279 83.4862C43.5094 81.4674 44.9863 79.1804 46.0553 77.7263C46.3788 77.2887 47.0539 76.1452 47.5322 75.1852C48.5308 73.2088 50.9079 68.903 53.7069 64.0043C57.2233 57.835 59.2487 54.0374 60.9085 50.4516C61.9775 48.1788 63.6934 43.9859 63.6934 43.7036C63.6794 43.6047 63.3559 43.9012 62.948 44.3388C62.2025 45.1576 62.104 45.3271 60.585 48.4611C59.8817 49.9434 59.5441 50.4658 58.8268 51.1999C58.0954 51.9622 57.8844 52.301 57.5749 53.1904C57.0264 54.7574 54.7478 59.3456 53.4678 61.4632C52.8489 62.4655 51.3721 64.8795 50.1905 66.8277C48.995 68.7618 47.7291 71.0488 47.3634 71.8817C46.646 73.5193 46.1397 74.3099 45.7037 74.4511C45.5489 74.4934 45.4083 74.7193 45.352 74.9593C45.2395 75.5805 44.6347 76.724 43.9877 77.5992C43.3125 78.4886 42.764 79.5474 42.6374 80.1968C42.5811 80.4792 42.2576 80.9874 41.7794 81.5097C41.3433 81.9756 40.5275 83.0909 39.9509 83.9803C37.7988 87.312 37.3347 87.9613 36.5048 88.7943C35.8297 89.486 35.5202 89.9519 34.9998 91.0813C33.6214 94.1306 31.8491 96.7 29.3595 99.2834C27.9811 100.738 27.1512 101.768 25.59 104.027C22.8613 107.994 21.2859 110.013 19.5277 111.777C17.3898 113.937 15.8285 114.883 14.0562 115.123L13.2967 115.222L13.367 114.587C13.4374 113.98 13.4233 113.937 12.7903 113.415C12.4246 113.104 11.8902 112.568 11.5948 112.215C10.99 111.495 9.99131 109.49 9.54121 108.093L9.23177 107.161L9.89285 106.116C11.2431 104.041 13.7187 101.401 17.2772 98.3093C19.6684 96.22 22.2002 93.7212 22.2002 93.4389C22.2002 93.3118 22.2986 93.0859 22.4112 92.9306C22.5237 92.7895 22.6221 92.4648 22.6221 92.2389C22.6221 91.9001 22.7909 91.6319 23.3395 91.1095C24.5491 89.9237 27.3622 86.7049 29.6408 83.8956C33.537 79.1098 35.7734 76.4557 37.3628 74.7617C38.3896 73.6464 39.2898 72.5029 40.0071 71.3735C41.8778 68.4371 44.6206 64.3431 48.1511 59.2044C54.1711 50.4516 57.0686 45.9765 59.6426 41.473C61.3304 38.5366 63.7497 33.8779 63.6512 33.765C63.4965 33.6097 62.8495 33.8779 62.3853 34.2873C61.8649 34.7391 61.6117 35.2473 61.1476 36.7861C60.7397 38.1696 60.5006 38.5084 59.2347 39.539C57.378 41.0495 57.2092 41.2472 57.2374 42.1083C57.2655 42.7859 57.1952 42.9412 56.5622 43.9012C56.1684 44.48 55.5214 45.5953 55.1135 46.3859C54.2555 48.1082 53.3975 49.1246 52.5114 49.4917L51.8784 49.7458V50.6916V51.6375L51.2736 52.0045C50.922 52.2022 50.4437 52.3575 50.1484 52.3575C49.5717 52.3575 49.5154 52.4986 49.8389 53.0633C49.9514 53.261 50.0358 53.5857 50.0499 53.7833C50.0499 54.108 49.9796 54.1786 49.5717 54.2492C48.995 54.3621 48.7981 54.5739 48.1792 55.8303C47.6728 56.8327 47.1243 57.4397 46.7164 57.4397C46.5757 57.4397 46.5335 57.5244 46.6038 57.6797C46.6601 57.8209 46.7304 58.1456 46.7726 58.3856C46.843 58.8232 46.8148 58.8656 46.21 59.1197C45.4505 59.4444 45.2254 59.8114 45.2957 60.5596L45.352 61.1102H44.6206H43.8892L43.9595 61.7031C44.058 62.649 43.6501 63.1713 42.5952 63.4678L41.7512 63.6937V64.5831C41.7512 65.5572 41.5121 65.8819 41.0198 65.6136C40.7948 65.5007 40.7807 65.5289 40.8651 65.9101C40.9354 66.3054 40.8651 66.4183 40.0774 67.1524C39.2194 67.9571 39.2194 67.9571 39.2194 68.7336V69.51L38.474 69.863C37.7988 70.1877 37.7285 70.2582 37.63 70.8512C37.4613 71.6841 37.3628 71.797 36.6173 71.91C35.9141 72.0088 35.7031 72.2629 35.7031 72.997C35.7031 73.7452 35.5202 73.9146 34.9717 73.7029C34.5638 73.5476 34.4794 73.5617 34.3246 73.7734C34.2262 73.9146 34.1699 74.1264 34.2121 74.2393C34.2403 74.3523 34.3387 74.6487 34.409 74.8887L34.5497 75.3405L33.2979 75.8628C32.6087 76.1452 32.0179 76.4416 31.9616 76.5122C31.9194 76.5828 32.032 76.9216 32.2008 77.2745C32.5946 78.051 32.468 78.2486 31.7366 78.0228C30.8223 77.7404 30.4004 78.1781 30.9067 78.8839C31.0755 79.1098 31.2021 79.4204 31.2021 79.5615C31.2021 80.2533 30.33 80.3945 29.8518 79.7733C29.683 79.5615 29.5002 79.4345 29.458 79.4768C29.4017 79.5192 29.3033 79.9568 29.2189 80.4368C29.0501 81.3968 28.8813 81.4815 28.1077 81.0862C27.7561 80.9027 27.6857 80.9027 27.6857 81.058C27.6857 81.3968 28.1077 82.4838 28.2765 82.5827C28.4031 82.6674 28.4031 82.7379 28.2624 82.9074C28.1077 83.0909 28.0374 83.0909 27.6576 82.8509C27.1512 82.5403 26.8418 82.625 26.8418 83.0626C26.8418 83.2462 26.6167 83.6697 26.3354 84.0085C25.7728 84.6579 25.4352 85.3496 25.4352 85.8014C25.4352 86.1402 24.9851 86.3096 24.6054 86.112C24.4507 86.0273 24.1693 85.9567 23.9724 85.9567C23.6911 85.9567 23.6067 86.0273 23.6067 86.2673C23.6208 86.4508 23.7052 86.7473 23.8177 86.9449C24.2537 87.7072 23.874 88.3002 23.1988 87.9472C23.0441 87.8625 22.7487 87.7919 22.5518 87.7919C22.2424 87.7919 22.2002 87.8484 22.2564 88.0743C22.2986 88.2296 22.383 88.4837 22.4252 88.6531C22.6643 89.5001 22.0033 89.966 21.5532 89.2743C21.2719 88.8507 21.1312 88.8366 20.9343 89.2178C20.8077 89.4296 20.8218 89.6554 20.9905 90.1495C21.1171 90.5166 21.2156 90.9542 21.2156 91.1377C21.2156 91.4483 21.1734 91.4624 20.2451 91.4624C19.6965 91.4624 19.2183 91.533 19.1761 91.6036C19.1198 91.6883 19.2464 91.9424 19.4574 92.1965C20.1466 93.0154 19.5981 93.6789 18.8244 92.9448C18.5994 92.733 18.3181 92.5918 18.1634 92.6201C17.9524 92.6624 17.9102 92.8036 17.9243 93.4812C17.9383 94.3565 17.7977 94.4977 17.3476 94.0036C17.0522 93.6647 16.6021 93.6365 16.4896 93.933C16.4333 94.0459 16.5036 94.3988 16.6302 94.7094C16.7568 95.02 16.8553 95.3165 16.8553 95.3588C16.8553 95.4435 16.4896 95.3871 15.6878 95.1894C15.3221 95.1047 15.3081 95.1188 15.3081 95.6694C15.3081 95.98 15.4065 96.3329 15.5191 96.4459C15.7019 96.6294 15.7019 96.6859 15.505 96.8411C15.3221 96.9823 15.2096 96.9823 14.8439 96.827C14.5907 96.7282 14.211 96.6435 13.9718 96.6294C13.6061 96.6153 13.5499 96.6576 13.6061 96.9682C13.6202 97.1658 13.7609 97.4764 13.9015 97.6882C14.0422 97.8858 14.211 98.2246 14.2672 98.4364L14.3516 98.8176L13.8171 98.5776C13.5077 98.4505 13.0998 98.3093 12.8747 98.267C12.509 98.2105 12.495 98.2246 12.495 98.8599C12.495 99.3964 12.4528 99.5093 12.2418 99.5093C12.1011 99.5093 11.8902 99.354 11.7917 99.1564C11.5807 98.7611 11.2713 98.747 11.0322 99.114C10.9196 99.2976 10.9478 99.5234 11.1306 100.032C11.5666 101.246 11.2994 101.81 10.6946 100.963C10.5117 100.709 10.357 100.625 10.1742 100.681C9.97724 100.766 9.94911 100.879 10.0194 101.316C10.2164 102.389 10.1882 102.672 9.92098 102.728C9.31616 102.855 8.78167 101.966 8.57069 100.483C8.4441 99.594 8.20499 98.987 6.95316 96.4035C6.13736 94.7377 5.23716 92.9448 4.94179 92.4224L4.4073 91.4766L5.11057 90.7566C6.0389 89.7825 7.09381 89.0625 9.52715 87.6649C15.4628 84.2626 25.2243 76.4416 34.6482 67.5477C40.2884 62.2114 43.4954 58.9644 43.9033 58.1315C44.4659 57.0162 45.4927 55.6892 46.7445 54.4751C47.3493 53.8963 48.1511 52.9504 48.5449 52.3575C48.9387 51.7787 50.0499 50.2822 51.0345 49.0399C52.005 47.7976 53.1021 46.3717 53.4537 45.8635C54.0586 44.9882 55.3948 42.7154 55.3948 42.5459C55.3948 42.5036 55.0572 42.6448 54.6634 42.8424C53.6085 43.3789 52.0331 45.0306 50.3734 47.3458C49.5998 48.4329 47.5884 50.9457 45.9006 52.9222C44.2127 54.8986 42.0185 57.5527 41.0058 58.8091C39.5992 60.5879 39.0366 61.1667 38.5865 61.3926C38.2349 61.562 37.5597 62.1549 36.983 62.7902C36.4345 63.3972 35.7453 64.0325 35.4358 64.1737C35.0279 64.3854 34.6763 64.7525 34.1559 65.5289C33.3541 66.743 32.257 67.8018 30.9067 68.6771C30.4004 69.0018 29.894 69.383 29.7815 69.5241C29.669 69.6512 28.0936 71.0065 26.2792 72.5311C24.4647 74.0417 22.369 75.9052 21.6235 76.6534C20.7092 77.5851 19.8231 78.3051 18.8807 78.898C17.1366 79.9992 15.941 80.8603 11.7214 84.0509C6.99535 87.6367 4.4073 89.3448 3.71809 89.3448C3.43678 89.3448 3.28206 89.2319 3.09921 88.8931C2.97262 88.6531 2.71944 88.286 2.53659 88.1025L2.21308 87.7637L2.35373 84.1356C2.50845 80.6062 2.7335 78.4745 3.11327 77.204C3.29612 76.5687 3.31019 76.5687 5.11057 75.6511C6.12329 75.1428 7.88148 74.2958 9.02079 73.7593C11.4823 72.6017 13.0295 71.67 14.0703 70.7241C14.5345 70.3006 15.5191 69.6935 16.6443 69.1147C19.9638 67.4207 23.4098 65.2042 27.5451 62.1125C29.9081 60.3479 38.8397 53.2045 41.1183 51.2422C43.1437 49.5199 46.2381 46.4423 47.6166 44.8047C48.7277 43.4918 51.1048 40.0895 50.9923 39.9766C50.8938 39.8778 49.7686 40.3436 49.3326 40.6683C49.0934 40.8519 48.5589 41.5154 48.137 42.1507C47.3353 43.3365 45.4786 45.1294 39.0085 50.8752C35.1264 54.3198 34.8451 54.5598 34.0152 54.8986C32.7915 55.4209 31.4834 56.3386 30.527 57.355C29.8237 58.075 29.5424 58.2868 29.2329 58.2868C29.0079 58.2868 28.7828 58.2162 28.7266 58.1315C28.6703 58.0326 28.5719 58.1032 28.4734 58.3009C28.389 58.4703 27.9811 58.8232 27.5591 59.0632C26.6589 59.5997 26.4198 59.882 26.4198 60.4467C26.4198 60.8561 26.4058 60.8561 25.8853 60.7996C25.4071 60.729 25.3368 60.7573 25.1821 61.1102C25.0695 61.3502 24.7038 61.6608 24.1975 61.929C23.3113 62.409 22.9878 62.7055 22.8472 63.1855C22.7065 63.6231 22.2002 63.609 21.6657 63.1572C21.1593 62.7337 20.9343 62.7055 21.0327 63.1008C21.1312 63.4537 20.8358 64.0466 20.5123 64.1454C20.0622 64.2866 19.5277 64.8937 19.5277 65.2748C19.5277 65.6842 19.4574 65.6983 18.7682 65.416C18.3884 65.2466 18.1774 65.2325 17.9805 65.3454C17.657 65.5289 17.6429 65.5854 17.9102 66.0513C18.1774 66.5172 18.1774 67.0254 17.8961 67.1383C17.7695 67.1807 17.4601 67.1101 17.1929 66.983C16.9256 66.856 16.4755 66.7571 16.2083 66.7571H15.7019L15.8004 67.463C15.8707 67.943 15.8426 68.2395 15.73 68.3806C15.4487 68.7195 15.0549 68.6206 14.8158 68.1689C14.4079 67.3783 13.8031 67.7454 13.6624 68.8465C13.5921 69.4818 13.5358 69.5947 13.2264 69.6794C12.9451 69.75 12.7903 69.6794 12.5512 69.3971C12.3684 69.1853 12.1293 69.0159 12.0167 69.0159C11.8058 69.0159 11.5526 69.6653 11.4823 70.3994L11.4401 70.7382L11.0603 70.4418C10.5961 70.0606 10.4133 70.0606 10.357 70.4559C10.3148 70.7523 10.1179 70.9076 9.18957 71.3029C8.852 71.4582 8.75354 71.5994 8.69728 72.0511C8.62695 72.5876 8.59882 72.6158 8.14873 72.5876C7.82522 72.5735 7.52984 72.4182 7.16414 72.0653C6.88283 71.7829 6.60152 71.557 6.54526 71.557C6.489 71.557 6.4468 71.9382 6.4468 72.4182V73.2793L6.0389 73.1805C5.47628 73.0535 5.09651 73.2935 4.75894 73.957C4.35104 74.7617 4.01346 74.9028 3.64776 74.437C3.2258 73.9005 3.26799 72.9405 3.77435 71.3876C4.01346 70.6676 4.23851 69.6653 4.29478 69.1571L4.37917 68.2395L6.15142 67.6183C9.72406 66.3901 12.8607 64.7525 17.0241 61.9431C19.7387 60.122 20.7374 59.3456 22.4252 57.7362C24.2819 55.9574 25.2383 55.3503 29.0219 53.5857C31.6663 52.3292 32.9181 51.6657 33.7339 51.0587C34.4794 50.494 35.478 49.4352 35.9141 48.7576C36.3641 48.0376 36.8846 46.8658 36.7861 46.767C36.758 46.7388 36.3923 46.9647 35.9703 47.2894C34.6341 48.2917 32.046 49.8869 27.5873 52.4422C21.314 56.028 18.3603 58.0609 16.1239 60.3055C15.4628 60.969 15.0408 61.2655 14.4641 61.4632C14.0281 61.6184 13.4092 61.9855 13.0576 62.3102C12.706 62.6208 11.9183 63.2419 11.2994 63.6796C10.6805 64.1172 9.99131 64.6678 9.76626 64.9078C9.51308 65.176 9.20364 65.3454 8.99266 65.3454C8.31751 65.3454 6.65778 65.7689 5.9967 66.0936L5.32156 66.4324L4.98398 65.9242C4.18225 64.7243 4.16819 63.5102 4.91366 62.0984C5.15277 61.6326 6.01077 60.4326 6.8125 59.4444C7.71269 58.315 8.45817 57.2138 8.79574 56.508C9.24584 55.5762 9.45682 55.2939 10.1601 54.7715C10.6243 54.4186 11.2853 53.7269 11.637 53.2327C14.6329 49.0117 16.0254 47.3882 17.6289 46.287C19.4293 45.0447 21.6798 44.0141 25.0977 42.8848L27.3341 42.1507L31.9054 42.0518C35.8015 41.953 36.6173 41.8965 37.4613 41.6707C41.0761 40.6542 45.127 38.5507 48.1089 36.1508C49.3326 35.1485 49.2341 35.3743 50.4015 30.8286C51.794 25.4075 52.4692 23.3323 53.4959 21.2994C53.8195 20.6641 53.8476 20.4523 53.8476 18.7018C53.8476 17.3324 53.721 15.9348 53.3975 13.6478C53.088 11.4032 52.9474 9.93495 52.9474 8.52321C52.9333 6.68796 52.9615 6.4762 53.3412 5.44563C53.6366 4.64095 53.932 4.13272 54.4383 3.56804L55.1416 2.80569L55.6198 3.15863C56.3231 3.69508 57.4906 4.20331 58.5877 4.42918C59.2065 4.57036 60.81 4.66919 63.1308 4.71153C66.9285 4.79623 68.0397 4.90918 69.3618 5.36093C70.1214 5.61505 70.248 5.62917 70.8528 5.43152C72.3015 4.97977 73.8487 4.73978 77.6183 4.42918C80.6283 4.17508 80.7408 4.14685 81.4863 3.72333C81.7958 3.53979 82.5553 3.2998 83.1742 3.17274C86.4655 2.52335 89.2786 2.42453 95.9035 2.73511C101.572 2.98923 102.444 2.97511 106.031 2.45277C108.83 2.04337 110.982 2.05748 113.19 2.52335ZM119.126 33.5532C119.688 33.9203 120.799 35.0497 120.799 35.2614C120.799 35.3179 120.659 35.4167 120.49 35.4873C119.688 35.8402 120.11 36.5602 121.939 37.9013C123.781 39.2566 124.372 39.9766 124.667 41.233C124.963 42.4471 125.047 42.6306 125.525 43.1248L125.891 43.4777L126.271 43.1248C126.693 42.7154 126.918 42.6589 127.03 42.9553C127.073 43.0683 127.537 43.3789 128.071 43.6612C129.351 44.3388 130.842 45.4823 133.388 47.7411C136.117 50.1834 136.806 50.7199 141.687 54.3339C143.937 55.9856 147.186 58.4844 148.902 59.8679C153.403 63.4819 154.979 64.4984 162.574 68.7618C167.131 71.317 169.143 72.517 170.69 73.5617C171.618 74.1829 171.773 74.2393 172.546 74.2393C173.334 74.2393 173.461 74.2817 174.206 74.8746C174.656 75.2134 175.43 75.8063 175.936 76.1734C177.723 77.5004 177.99 78.7851 177.272 82.6532C177.061 83.8109 176.865 84.8414 176.836 84.9544C176.794 85.0955 176.611 85.1238 176.063 85.0532C174.938 84.8979 174.248 84.5873 170.718 82.5685C165.05 79.3357 162.447 77.571 160.141 75.3828C159.184 74.4793 158.833 74.2393 158.509 74.2393C158.27 74.2393 157.792 74.084 157.426 73.8864C157.06 73.6887 156.681 73.5335 156.582 73.5335C156.484 73.5335 156.371 73.4064 156.315 73.2652C156.273 73.1099 155.949 72.757 155.612 72.4747C155.26 72.1923 154.979 71.8394 154.979 71.6982C154.979 71.5147 154.669 71.2747 153.966 70.8935C152.602 70.1735 151.139 69.0724 149.338 67.3783C147.003 65.176 145.92 64.2443 143.642 62.4796C139.999 59.6702 138.972 58.7809 135.357 55.3503C130.055 50.3105 127.368 47.5858 125.314 45.0871C122.515 41.713 121.714 40.5836 120.856 38.8754C120.335 37.859 119.829 37.0543 119.337 36.5461C118.169 35.3179 117.185 33.7509 117.339 33.3556C117.466 33.0026 118.422 33.1156 119.126 33.5532ZM122.769 36.2637C123.064 36.419 123.809 36.9696 124.414 37.4778C125.019 38.0002 125.765 38.5931 126.06 38.7907L126.623 39.1578L126.032 39.2001C125.23 39.2566 124.203 38.6919 123.275 37.6614C122.572 36.8708 121.967 35.9814 122.136 35.9814C122.178 35.9814 122.459 36.1084 122.769 36.2637Z" fill="white"/>
</svg>
